<svg xmlns="http://www.w3.org/2000/svg" data-name="1" viewBox="0 0 1428.66 613.16"><g data-name="9"><path fill="#e1effc" fill-rule="evenodd" d="M827.54 262.17c62.87-14.77 114.76-25.06 156.76-31.72C1126.26 208 881 500.89 354.92 572.26 163.64 598.21-58 558.54 53.63 380c19.49-31.19 26.83-63.65 31.88-95.34C93.4 235.22 98.64 190 124.3 151c30.76-46.68 99.86-87.65 169.26-88.17 99.48-.74 181.41 76.59 254 126.78 76.07 52.69 162.94 100.03 279.98 72.56Z"/><path fill="#bfddfc" fill-rule="evenodd" d="M366.94 245.78c3.61 106.19-244.56 66-176.72-27.87 42-58.1 173.94-53.66 176.72 27.87Zm637.84 102.94c61.91-82.5 34.07-174.11-76.87-206.09-49.2-14.18-96.15 1.59-146.39 15C675.56 186 643.7 130.75 596.16 81.9 488.24-29 359.46 36.66 392.08 177.31c12.52 54 36.52 108.69 7.76 146.38-169.12 221.58 434.86 251.66 604.94 25.03Z"/><path fill="#bfddfc" fill-rule="evenodd" d="M601.12 262.17c-62.87-14.77-114.76-25.06-156.76-31.72C302.4 208 547.7 500.89 1073.75 572.26 1265 598.21 1486.63 558.54 1375 380c-19.49-31.19-26.83-63.65-31.88-95.34-7.86-49.44-13.12-94.66-38.76-133.66-30.76-46.68-99.85-87.65-169.25-88.17-99.49-.74-181.41 76.59-254 126.78C805 242.3 718.16 289.64 601.12 262.17Z"/><path fill="#e1effc" fill-rule="evenodd" d="M1061.73 245.78c2.77-81.53 134.74-86 176.71-27.87 67.84 93.91-180.33 134.06-176.71 27.87Zm-32.91 77.91c-28.76-37.69-4.76-92.37 7.77-146.38C1069.2 36.66 940.43-29 832.5 81.9 785 130.75 753.1 186 647.14 157.67c-50.23-13.45-97.19-29.22-146.39-15-110.94 32-138.78 123.59-76.87 206.09 170.12 226.59 774.06 196.51 604.94-25.07Z"/><path fill="#d33920" fill-rule="evenodd" d="M271.15 336.86c13.26-1.12 18.93-10 29.91-10.44 22.41-.93 47.05 7.46 60.24 6 11.05-1.21 24.14-2.5 31.42 6.8 5.61 7.17-1 6.92-10.4 15.94-37.17 35.51-71.34 27.45-108.42-3.7-6.47-5.46-14.17-13.63-2.75-14.6Z"/><path fill="#f37d59" fill-rule="evenodd" d="M232 587.16C239.77 512 245.74 435 242.73 361.27a134.48 134.48 0 0 1 37.55-16.1c13.32 9.14 33.92 22.08 54 22.08s36.51-13.56 47.25-24.85c46.06 11.89 56.51 154.12 61.74 244.76Z"/><path fill="#ff9076" fill-rule="evenodd" d="M402.31 587.16H262.55a157.51 157.51 0 0 1-6.17-44.16c0-61.77 34.05-111.85 76.05-111.85s76.05 50.07 76.05 111.85a157.51 157.51 0 0 1-6.17 44.16Z"/><path fill="#d33920" fill-rule="evenodd" d="M347.49 365.28a64.74 64.74 0 0 0 19.68-10.11c10.21-4.79 8.34-6.25 16.14-11.16l1.05-.66c7.33 2.86 13.72 9.12 19.3 18-3.49 2.29-6.63 4.86-9.16 6.64-8.71 6.13-9.44 8.28-21.57 11.25-17.4 4.28-12.81 7.08-30.29 4.49l-1.87-.29c-3.01-7.89.66-13.65 6.72-18.16Z"/><path fill="#e85d3d" fill-rule="evenodd" d="M429.73 444.09c10.43 44 11.86 99.14 13.49 143.07h-7.58c0-43.7-.67-101.39-9.32-145.35-3.16-16.04.26-11 3.41 2.28ZM232 587.16c7-67.71 12.57-136.9 11.41-203.86 11.5-8.45 21.8-10.28 29.25-1.71 9.54 11.65-10.45 70.56-22.27 109-21.83 70.83 25.68 36.78 43.61 26.41a90.83 90.83 0 0 1 25.53-10.17c1.8 4.81 13.22 26.21 15.59 30.83a416.56 416.56 0 0 1-33.41 49.54Z"/><path fill="#c1c1c1" fill-rule="evenodd" d="M383.59 262.33c.07-12.75 1.21-20.8 2.68-26.15 14.44-52.65-64.11-59-98.4-39.15-16.87 9.74-26.09 35.82-24.35 53.57 1.39 14.1 11.52 18.53 17.22 36.79a97.78 97.78 0 0 0 4.45 11.61c6.28 13.69 13.88 16.43 41 16 16.83-.25 33.74-4 44.25-19.68 7.18-10.72 13.01-2.81 13.15-32.99Z"/><path fill="#fea682" fill-rule="evenodd" d="M363.87 309.87c-5.1 11.6-5.66 35.38 3.51 49.83-6.88 15.57-44.59 28.47-69.58-3.73 11.2-17.74 7.29-63.87 2.2-79.47 9.78 2.96 54.38 29.63 63.87 33.37Z"/><path fill="#feceb4" fill-rule="evenodd" d="M375.59 238c6.32 18.25.12 54.83-3.56 66.55-5.31 16.91-13.14 22.49-27.13 22.12-19.25-.51-37.7-21.72-38.09-49.36-.2-14.27 1.62-26.61 6.74-35.73 9.78-17.44 16.74-17.74 36.72-16.64 11.35.61 22.3 4.32 25.32 13.06Z"/><path fill="#fedfcd" fill-rule="evenodd" d="M375.37 252.13c.81 21.4-.07 72.81-29.47 72-16.74-.46-32.8-19.21-33.17-43.63-.41-28.02 61.43-60.21 62.64-28.37Z"/><path fill="#dbdbdb" fill-rule="evenodd" d="M378.31 257.13C375 255 365.5 255.21 362.48 254c-4-1.63.62-5.74 1.34-3.7.46 1.31 3.32-2 5 .2.7.9 5.26 1.62 7.21 2.88a20.39 20.39 0 0 1 3.22 2.48c1.01.98.05 1.92-.94 1.27Zm-50.7-3.88c3.67-1.63 13.38.39 16.61-.33 4.25-.95-.05-6-1-4.06-.61 1.27-3.22-2.65-5.17-.72-.81.8-5.58.7-7.71 1.64a18.61 18.61 0 0 0-3.57 2c-1.14.8-.25 1.95.84 1.47Z"/><path fill="#febea0" fill-rule="evenodd" d="M350.37 373.36c.49-35.43-16.64-47.23-45.9-42.24-.9 10-3 19-6.67 24.85 16.13 20.78 37.55 22.78 52.57 17.39Z"/><path fill="#e85d3d" fill-rule="evenodd" d="M399 354.73c1.28-.87 2.61-1.8 4-2.78 88.35 56.22 94.71 144.57 99.94 235.21h-59.72c-4.49-77.84-12.83-193.73-44.22-232.43Z"/><path fill="#ff9076" fill-rule="evenodd" d="M399 354.73c1.28-.87 2.61-1.8 4-2.78 65.74 41.83 90.89 164.45 84.3 235.21h-44c-4.57-77.84-12.91-193.73-44.3-232.43Z"/><path fill="#d33920" fill-rule="evenodd" d="M399 354.73c1.28-.87 2.61-1.8 4-2.78q4.25 2.7 8.24 5.5a37 37 0 0 0-7.54 3.92 68.81 68.81 0 0 0-4.7-6.64Z"/><path fill="#fcede3" fill-rule="evenodd" d="M440.39 543.13c-32.76 13.77-74.44 22-119.84 22a340.61 340.61 0 0 1-85.36-10.47c3.37-35.72 6.1-71.68 7.44-107.35a555.32 555.32 0 0 0 77.92 5.29c40.23 0 77.54-4 108.3-10.73 5.59 32.13 9.09 67.97 11.54 101.26Z"/><path fill="#fffbf8" fill-rule="evenodd" d="M408.11 554.1c-26.23 7.06-56 11-87.56 11a352.82 352.82 0 0 1-63.34-5.6c-.54-5.4-.83-10.93-.83-16.56 0-37.65 12.65-71 32.05-91.23 10.44.56 21.17.86 32.12.86 18.86 0 37.07-.87 54.27-2.5 20.3 20.09 33.66 54.19 33.66 92.87 0 3.8-.13 7.51-.37 11.16Z"/><path fill="#d33920" fill-rule="evenodd" d="M317.8 565.14a339.41 339.41 0 0 1-82.61-10.46l.16-1.67.08-.88.07-.8.21-2.21v-.18l.08-1 .16-1.67.05-.56.1-1.12.15-1.68v-.77l.21-2.39v-.93l.23-2.61v-.09l.13-1.59v-.36l.2-2.31.06-.69.13-1.45v-.23l.14-1.67.1-1.3v-.38l.14-1.68v-.24l.12-1.44.14-1.68.08-1 .05-.7.14-1.68.12-1.54v-.14l.13-1.67.05-.67.08-1 .13-1.68V511l.12-1.48v-.14l.12-1.68.08-1.1.12-1.53.13-1.9v-.51l.12-1.68.06-.76.11-1.58.51-2.64v-.08l.12-1.65.11-1.68v-.31l.08-1.28v-.09l.11-1.67V489l.1-1.42.1-1.68v-.27l.07-1.14v-.27l.1-1.68v-.11L241 481v-.17l.1-1.68.08-1.34v-.33l.09-1.68.06-1 .1-1.71.1-1.92v-.36l.09-1.68V469l.07-1.54v-.5l.1-2.08.08-1.55.13-1.33.1-2.15v-.78l.1-2.21.07-1.49.07-1.82v-.85l.1-2.55v-.64l.08-2.16c6.57.94 13.35 1.76 20.29 2.46-4.21 14.22-8.8 28.56-12.57 40.81-21.68 70.8 25.83 36.75 43.76 26.38a90.83 90.83 0 0 1 25.53-10.17c1.8 4.81 13.22 26.21 15.59 30.83-5.12 8.89-10.95 18.18-17.32 27.48Z"/><path fill="#dbdbdb" fill-rule="evenodd" d="M299 256.35c2.49-3.83 7-3.76 10.13-2.19 1.86.92 2.82-6.93 4.23-10.93 3.73-10.57 14-13.71 24.45-11.78 3.14.58 15.18 5 18.26 6.47 38.36 18.17 39.85-27.11 31.48-27.11 6.94-5.2 3.22-30.24-21.82-22-2.06-12-31.16-26-62.2.52-29.23 5.9-30.07 47.54-12.09 67.28 5.56 6.12 5.03 3.62 7.56-.26Z"/><path fill="#ff9076" fill-rule="evenodd" d="M342.24 383.75c15.1 2.59 11.14-.21 26.17-4.49 10.48-3 11.11-5.12 18.64-11.25 5.84-4.75 15.53-15.27 24.54-10.51 1.6.85-.31-3.89-1.87-5.64-10.83-12.12-13.72-21.42-32.34-7.86-7.37 5.37-4.75 6.61-16.69 12.58-11.05 5.53-24.69 12.79-20.07 26.87Z"/><path fill="#e85d3d" fill-rule="evenodd" d="M241.49 358.25c2.44-2.43 6.26-5.55 7.28-7.83 3.35-7.46 10.11-14.89 18.91-12.65 6.77 1.73 1.67-1.85 9.73 3.33.73.46 5.17-1.52 13.24 4.27 12.81 9.2 10.41 12.75 13.75 15.73 5.35 4.78 40.24 9.2 36.88 17.34-1.74 4.22 3.42 7.48-12.07 4.57-5.68-1.07-2.28-2.88-13.37-2.67-11.57.21-31.55-16.49-51.43-16.88-10.34-.21-10-5.92-21.58-1.61-4.04 1.5-4.39-.58-1.34-3.6Z"/><path fill="#ff9076" fill-rule="evenodd" d="M339.55 383.9c-1.39.44-4.29.25-10.34-.89-5.68-1.07-2.28-2.88-13.37-2.67-11.57.21-31.55-16.49-51.43-16.88-9.14-.18-10-4.66-18-2.73a8.19 8.19 0 0 0 1.18-1.79c3.35-7.45 10.11-14.88 18.9-12.64 6.78 1.72 1.68-1.86 9.74 3.32.73.47 5.17-1.51 13.23 4.28 12.81 9.19 10.41 12.75 13.75 15.73 4.64 4.14 31.47 8.02 36.34 14.27Z"/><path fill="#d33920" fill-rule="evenodd" d="M435.28 545.21c-.73-34.61-2.85-72-8.84-102.8l2.41-.52c5.59 32.1 9.09 67.95 11.54 101.24-1.68.71-3.39 1.4-5.11 2.08Z"/><path fill="#f7a95d" fill-rule="evenodd" d="M327.42 377.86a2.68 2.68 0 1 0-3-2.67 2.86 2.86 0 0 0 3 2.67Zm30.33 1.14a2.68 2.68 0 1 0-3-2.67 2.86 2.86 0 0 0 3 2.67Z"/><path fill="#ebcfa8" fill-rule="evenodd" d="M357 376.17a1 1 0 0 1 1.79.74c-2 4.7.16 6.7 2.56 9 3.42 3.21 7.31 6.86 3.75 17.17a1 1 0 0 1-1.82-.62c3.15-9.14-.26-12.34-3.25-15.15s-5.56-5.21-3.03-11.14Zm-30.21-1.83a1 1 0 0 1 1.12 1.57c-6 4.29-4.74 8.74-3.35 13.6 1.54 5.41 3.22 11.28-3.07 18.07-2.34 2.53-1.25 5.37-.05 8.52a20.15 20.15 0 0 1 1.75 7.21 1 1 0 1 1-1.93 0 18.78 18.78 0 0 0-1.62-6.52c-1.43-3.73-2.72-7.11.44-10.51 5.55-6 4-11.33 2.62-16.24-1.58-5.54-3.03-10.62 4.09-15.7Z"/><path fill="#feceb4" fill-rule="evenodd" d="M292.93 260.86c-2.26 7-.79 12.31 3.92 18.26 3.87 4.9 9.08 8.16 12.08 4.62-.23-6.78-.44-23.57 1.33-28.3-3.66-5.39-14.26-4.16-17.33 5.42Z"/><path fill="#fea682" fill-rule="evenodd" d="M302.3 258.2c-4.26.17-8.11 13.74 2.35 18.61a20.36 20.36 0 0 1-1.45-6.55c-.18-2.48 0-7.13 1.26-10.16.95-2.23.99-2.02-2.16-1.9Z"/><path fill="#aaa" fill-rule="evenodd" d="m346.34 440.69 33.87 1.46a5.87 5.87 0 0 1 5.6 6.14l-4.54 93.17a6 6 0 0 1-6.18 5.63l-33.87-1.47a5.88 5.88 0 0 1-5.6-6.14l4.55-93.16a6 6 0 0 1 6.17-5.63Z"/><path fill="#f9f9f9" fill-rule="evenodd" d="M362.81 451.56a5.59 5.59 0 0 1 5.6 5.61 5.65 5.65 0 0 1-5.64 5.62 5.62 5.62 0 0 1 0-11.23Z"/><path fill="#1b3737" fill-rule="evenodd" d="M362.81 453a4.19 4.19 0 1 1-4.21 4.19 4.22 4.22 0 0 1 4.21-4.19Z"/><path fill="#f9f9f9" fill-rule="evenodd" d="M362.24 466.45a1.25 1.25 0 0 1 1.25 1.25 1.27 1.27 0 0 1-1.26 1.25 1.25 1.25 0 0 1-1.23-1.25 1.26 1.26 0 0 1 1.24-1.25Z"/><path fill="#febea0" fill-rule="evenodd" d="M370 485.31c-16.53 9-28.74-4.85-30.41-9.6a3.28 3.28 0 0 0-5-1.41c-5.1 3.16-2.79 9.33-3.46 14.9-.82 6.8-2.24 14.07-15.77 16.19-2 2.59 4.47 25.43 12.79 29.76 15.94 2.59 53.9 4 58.3-21.34 3.76-24.46 9.38-42.49-16.45-28.5Z"/><path fill="#f37d59" fill-rule="evenodd" d="M288.81 587.16a290.41 290.41 0 0 0 43.7-49.54c-2.3-5.22-13.38-29.52-15.11-34.78a76.06 76.06 0 0 0-25.68 3.45c-18.06 5.69-66.11 27.17-43.2-37.66 6.76-19.12 21.72-40.65 27.27-61.3 4.67-17.37 1-35-3.26-41.43-18.89-27.08-58 10-87.4 53.89-6.34 9.46-26 40.24-36.6 76.85-8.09 28-8.3 65.9.48 90.52Z"/><path fill="#ff9076" fill-rule="evenodd" d="M318.05 526.8c0-11.5-8.14-18.68-27.88-12.47-6.52 2.06-12.77 4.44-19.44 6.13-9.45 2.39-21.27 4-29.86-1.73-16-10.72-8.12-37.13-3-51.53 4-11.44 10.19-22.46 15.66-33.3 4.4-8.71 8.91-18 11.44-27.46 4.12-28.71-9.64-53.68-39.21-27.14-14.51 12.7-27.58 29.7-38.27 45.6-15 22.4-28.18 49-35.65 74.81-10.75 37.2 3.22 76 45.65 81.22 50.63 6.23 120.51-10.07 120.56-54.13Z"/><path fill="#feceb4" fill-rule="evenodd" d="M240.55 497.6c-18.09 19.63-16.92 24.61 8 10.73-16.1 21.52-11.51 22.47 8.64 9.68-8.57 16.75-2 14.88 5.17 7.53 4.37-4.45 10.73-10.13 9.13-17.16-2.67-11.72-13.74-22.13-23.93-24.33-6.91-1.49-11.51 4.07-15.69 8.5-8.42 8.91-10.21 19.77 8.68 5.05Z"/><path fill="#dbdbdb" fill-rule="evenodd" d="M437.55 373.22c7.81-8.07 15.75-15 18.42-22.79 6.85-20-12-39.44 20.45-57.29 33.6-18.46 30.46-19 37.32-56 6.4-34.49 48.66-57.83 83.83-30.58 41.7-3.2 43.32 29.38 37.11 55-2.42 10 2.22 16.08 5.51 19.22 13.39 12.79 35.92 19.73 31.79 44.22-4.47 26.5.91 19.4 19.69 40.61 12.61 14.23-6.29 24.35 7.81 38 8.65 8.39 10.94 17.21 9.4 25.93-11.53 65.36-169.61 85.09-246.75 44-39.25-20.98-58.85-64.95-24.58-100.32Z"/><path fill="#aaa" fill-rule="evenodd" d="M474.57 364.93c5.54-5.72 11.16-10.63 13.05-16.15 4.86-14.16-8.52-27.95 14.49-40.6 23.81-13.08 21.59-13.48 26.45-39.71 4.53-24.45 34.48-41 59.41-21.68 29.54-2.27 30.7 20.82 26.3 39a13.39 13.39 0 0 0 3.9 13.62c9.49 9.06 25.45 14 22.53 31.34-3.17 18.78.64 13.75 13.95 28.77 8.94 10.09-4.46 17.26 5.54 27 6.12 5.95 7.75 12.2 6.66 18.37C658.67 451.15 546.66 465.13 492 436c-27.82-14.84-41.72-46-17.43-71.07Z"/><path fill="#e55e4b" fill-rule="evenodd" d="m472.23 585.44.19-3.83c3.09-60.14-12.91-147.84-5.91-189.07 2.45-14.43 55.82-39.72 98.11-39.72s99.38 21 102.55 35.39c9.06 41-8.15 120.83-3.26 180.66.48 5.82.92 11.36 1.33 16.57Z"/><path fill="#cc3e2f" fill-rule="evenodd" d="M648.81 585.44v-.73c-1.37-49.61-22-114.53-23.17-156.43-.67-24.59 16.8-53.55 42.14-37.16 7.68 41.8-8.63 119.31-3.85 177.75.48 5.82.92 11.36 1.33 16.57Z"/><path fill="#af251b" fill-rule="evenodd" d="m472.23 585.44.16-3.73c2.5-58.48-14.36-143.77-7.77-183.87a8.84 8.84 0 0 1 1-2.66c30.72-32.08 70.68.27 69.67 27.3-1.47 39.16-34.14 100-35.88 146.37a32 32 0 0 1-5.27 16.59Z"/><path fill="#cc3e2f" fill-rule="evenodd" d="m472.23 585.44.19-3.83c.92-17.82.16-38.06-1.18-58.79a477.73 477.73 0 0 0 71.38-69.45c2.35 0 20.86 11.13 18.51 17.66-2.41 6.72-12.75 44.58-33.22 79.24a268.82 268.82 0 0 1-25.26 35.17Z"/><path fill="#cc3e2f" fill-rule="evenodd" d="M534.38 417.87c-4.3 40.27-41.37 102.83-46.46 150.52a35.76 35.76 0 0 1-6.48 17.05h-61.51a48.56 48.56 0 0 1-8.5-26.17c-1-25.67 15-104.11 40.88-150 35.24-62.56 85.47-23.35 82.07 8.6Z"/><path fill="#af251b" fill-rule="evenodd" d="M518.18 473.1C506 504.78 491 539.34 487.92 568.39a35.74 35.74 0 0 1-6.26 16.74l-65-5a50.17 50.17 0 0 1-5.28-20.84 100 100 0 0 1 .46-12.54c7.33-14.85 23.77-24.16 37.83-32.52 17.8-10.57 41.57-23.83 68.51-41.13Z"/><path fill="#cc3e2f" fill-rule="evenodd" d="M614.06 414.82c4.42 40.55 32.68 103.27 37.93 151.29.25 2.26.7 9.86 1.33 19.33h77.27c-3.27-60.34-27.91-144.81-43.21-173.33-35.62-66.4-76.84-29.47-73.32 2.71Z"/><path fill="#f27466" fill-rule="evenodd" d="M637.65 585.44c-3-18.74-11.7-40-27.8-44.21-30-7.86-61.81 13.28-80.44 30q-7.71 6.91-14.88 14.25Z"/><path fill="#e07283" fill-rule="evenodd" d="M618.24 437.6c.26 1.12.54 2.24.82 3.38a4.13 4.13 0 0 0 3.68 2c1.23 0 2.42 1.14 3.38 1.05a6.25 6.25 0 0 0 5.78-5.95c.42-4-.23-4.33-2.42-5.91a3 3 0 0 0-2.5-.6c-5.16-.63-7.84 1.88-8.56 4.71a6.46 6.46 0 0 0-.18 1.3Zm5.42 20.24q1.74 6 3.63 12.2a6.28 6.28 0 0 0 4.61-5.74c.42-4-.23-4.34-2.42-5.92a3 3 0 0 0-2.5-.59 11 11 0 0 0-3.32 0ZM643.42 524q1.67 6.19 3.13 12.28a6.24 6.24 0 0 0 5.61-5.93c.42-4-.23-4.33-2.42-5.91a3 3 0 0 0-2.5-.6 10.72 10.72 0 0 0-3.82.16Zm6.38 27.49c.55 3 1 5.91 1.44 8.8a7.39 7.39 0 0 0 .92-2.93c.42-3.93-.22-4.33-2.36-5.87Zm19.63-114.91c-.64-1.69-1.3-3.37-2-5-4.51-.2-6.89 2.17-7.55 4.8-.8 3.18.88 6.75 4.31 6.7 1.23 0 2.43 1.14 3.38 1.05a7.77 7.77 0 0 0 1.45-.28q.21-3.66.37-7.23Zm-8.71-20.75-.78-1.69a5.44 5.44 0 0 0 .78 1.69Zm-8.59-17.21q-1.85-3.43-3.77-6.76a2 2 0 0 0-1.12 0c-5.16-.63-7.85 1.88-8.56 4.71-.79 3.18.89 6.75 4.31 6.7 1.24 0 2.43 1.14 3.39 1.05a6.21 6.21 0 0 0 5.75-5.71Zm-23.2-18.36a34.73 34.73 0 0 0-9.16 10 4.06 4.06 0 0 0 3 1.14c1.23 0 2.42 1.14 3.38 1.05a6.24 6.24 0 0 0 5.78-6c.42-4-.23-4.33-2.42-5.91a4 4 0 0 0-.55-.33Zm39.22 77.53q-.45 6.17-.94 12.47c-.88-.18-1.92-1-3-1-3.43.05-5.11-3.52-4.31-6.7.69-2.77 3.28-5.24 8.23-4.75ZM666 485.67q-.45 5.79-.88 11.63a2.48 2.48 0 0 0-.88-.16c-3.43.05-5.11-3.52-4.31-6.7.58-2.33 2.51-4.45 6.07-4.77Zm-1.88 26.57c-.1 1.69 4.25 4.73 4.16 6.41-.1 2-4.64 2.65-4.73 4.64-3-.4-4.37-3.7-3.62-6.65a6.13 6.13 0 0 1 4.19-4.4Zm-1.06 27.45c0 1.59 3.21 4 3.21 5.58 0 1.94-3.23 3-3.2 4.94-2.63-.67-3.85-3.77-3.14-6.56a6.07 6.07 0 0 1 3.13-4Zm.62 25.92.24 3.26c.22 2.62.43 5.19.63 7.69h-.31c-3.43.05-5.11-3.52-4.31-6.69a6.06 6.06 0 0 1 3.75-4.24Zm-16.43-68c-5.16-.63-7.85 1.88-8.56 4.71-.79 3.17.89 6.75 4.31 6.69 1.24 0 2.43 1.14 3.39 1.05a6.24 6.24 0 0 0 5.78-5.94c.42-4-.23-4.34-2.42-5.92a2.91 2.91 0 0 0-2.5-.59Zm0-27.95c-5.16-.63-7.85 1.89-8.56 4.72-.79 3.17.89 6.74 4.31 6.69 1.24 0 2.43 1.14 3.39 1.05a6.24 6.24 0 0 0 5.78-5.95c.42-4-.23-4.33-2.42-5.91a3 3 0 0 0-2.5-.6Zm0-26.19c-5.16-.63-7.85 1.88-8.56 4.71-.79 3.17.89 6.75 4.31 6.69 1.24 0 2.43 1.14 3.39 1.05a6.24 6.24 0 0 0 5.78-5.94c.42-4-.23-4.34-2.42-5.92a3 3 0 0 0-2.5-.59Zm0-25.44c-5.16-.63-7.85 1.88-8.56 4.71-.79 3.18.89 6.75 4.31 6.7 1.24 0 2.43 1.13 3.39 1a6.24 6.24 0 0 0 5.78-5.94c.42-4-.23-4.34-2.42-5.92a3 3 0 0 0-2.5-.59ZM627 406.15c-5.16-.63-7.84 1.89-8.56 4.71-.79 3.18.89 6.75 4.32 6.7 1.23 0 2.42 1.14 3.38 1.05a6.25 6.25 0 0 0 5.78-5.95c.42-4-.23-4.33-2.42-5.91a3 3 0 0 0-2.5-.6Z"/><path fill="#af251b" fill-rule="evenodd" d="M617.2 360.18c4 1.47 8.32 4.48 8.82 8.82s-2.57 7.91-5.95 10.41c-16.21 12-69.44 11.34-85.66-.75-3.38-2.53-6.46-6.08-5.95-10.46s4.07-6.93 8-8.37c19-6.83 61.63-6.74 80.74.35Z"/><path fill="#fff" fill-rule="evenodd" d="M614.75 357.45c4 1.49 7.53 4.15 8 8.59s-2.57 8.12-5.95 10.69c-16.18 12.27-68.63 12.27-84.8 0-3.38-2.57-6.46-6.2-6-10.69s4.07-7.1 8-8.59c19-7.13 61.64-7.18 80.75 0Z"/><path fill="#fea682" fill-rule="evenodd" d="M536.66 370.86c-4.14-3.2-5.16-6.2.42-8.34 19.95-7.64 15-33.1 14.12-59-.18-5.5 11.64-7.2 23.2-6.39 11.56-.81 23.38.89 23.2 6.39-.84 25.89-5.84 51.35 14.11 59 5.59 2.14 4.57 5.14.43 8.34-13.55 10.5-61.93 10.5-75.48 0Z"/><path fill="#feceb4" fill-rule="evenodd" d="M578.75 335.07a23 23 0 0 1-2.37.28h-3.96a23 23 0 0 1-2.37-.28c-17.56-2.85-38.33-24.25-38.88-51.7-.57-28.62 5.78-49.88 27.35-54.51 7.47-1.6 29.2-1.13 35.72 1.09 18.4 6.29 23.92 26.63 23.39 53.42-.55 27.45-21.32 48.85-38.88 51.7Z"/><path fill="#fedfcd" fill-rule="evenodd" d="M577.75 334a17.6 17.6 0 0 1-2.06.25h-3.44a18.23 18.23 0 0 1-2.08-.25c-15.44-2.59-34.26-22.05-35.59-47a126.64 126.64 0 0 1 0-14.84 10.4 10.4 0 0 1 .55-.91c2.48-3.54 22.94-10.76 22.54-8.24-.15.93-2.92 1.66-10.64 6.49 10.42-.91 37.63-2.31 43.49-10.23.16.05 4.77 14.78 19 16.15.36 3.68.56 7.55.62 11.58.37 24.93-17.14 44.39-32.39 47Z"/><path fill="#feceb4" fill-rule="evenodd" d="M517.68 273.75c-1.46 7.57.4 13.07 5.33 18.95 4 4.84 9.2 7.83 11.68 3.82-.84-7.14-2.58-24.86-1.36-30-3.9-5.39-13.64-3.17-15.65 7.23Z"/><path fill="#fea682" fill-rule="evenodd" d="M526.17 270.12c-4 .55-6.29 15.22 3.9 19.46a23.77 23.77 0 0 1-2-6.8c-.39-2.61-.68-7.52.24-10.84.69-2.44.78-2.23-2.14-1.82Z"/><path fill="#feceb4" fill-rule="evenodd" d="M631.11 273.75c1.47 7.57-.39 13.07-5.32 18.95-4.06 4.84-9.2 7.83-11.68 3.82.84-7.14 2.58-24.86 1.36-30 3.9-5.39 13.64-3.17 15.64 7.23Z"/><path fill="#fea682" fill-rule="evenodd" d="M622.63 270.12c4 .55 6.29 15.22-3.9 19.46a23.77 23.77 0 0 0 2-6.8c.39-2.61.67-7.52-.25-10.84-.71-2.44-.77-2.23 2.15-1.82Z"/><path fill="#c1c1c1" fill-rule="evenodd" d="M597.76 206.76c6 8 8.7 19.29 4.42 29.73a36.32 36.32 0 0 1-5.32 8.94c3.62 8.57 10 16.38 19.64 16.27 13.26-.15 12.26 7.73 20 14.44-2-3.45-3.38-8.24-1.83-14.64 6.2-25.56 4.59-58.07-36.89-55-.27.01-.22-.02-.02.26Z"/><path fill="#3b2933" fill-rule="evenodd" d="M605.59 270.71c-4.49-5.21-19-6.31-15.79-2.08 1.76 2.34 6.77-.19 11.09 1.8a26.65 26.65 0 0 0 4.39 1.19c1.13.12.89-.24.31-.91Zm-62.38 0c4.49-5.21 19-6.31 15.79-2.08-1.76 2.34-6.77-.19-11.09 1.8a27 27 0 0 1-4.39 1.19c-1.13.12-.89-.24-.31-.91Z"/><path fill="#dbdbdb" fill-rule="evenodd" d="M527.16 215c16.41-19.11 42.9-24.62 70.41-8.53 6.1 8 9.1 19.7 4.77 30.24-5.67 13.82-20.79 23.85-37.63 25.33C572.78 257 580 249 581.32 243.25c-6.21 3.74-10.07 10.17-34.32 15.31-16.66 3.54-15.77 15.34-15.77 14.42-23.64-4.98-16.15-43.88-4.07-57.98Z"/><path fill="#febea0" fill-rule="evenodd" d="M560.91 339.09a19.48 19.48 0 0 0-2.32-.27h-3.97a21.44 21.44 0 0 0-2.4.27h-.21c-1 10.91-4.72 19.48-14.93 23.39-5.58 2.14-4.56 5.14-.42 8.34 9.6 7.44 36.72 9.61 56.52 6.5-3.06-20.73-17.98-35.86-32.27-38.23Z"/><path fill="#feceb4" fill-rule="evenodd" d="M569 425.31c-5.85 5.95-5.75 1.5-4.89-3.21 1.3-7.19.51-8.74-.79-9.42-1.66-.86-3.51 1.37-6.08 7.75-3.16 7.88-7.24 19.14-7.88 28.1-.31 2.31 4.45 11 11.72 11.07 4.51-1.39 24.76-13.32 36-22.22 2.1-1.67.83-5.19-1.26-5a1.58 1.58 0 0 1-1.07-.14 1.87 1.87 0 0 1 .62-2.47c2.42-2.68-1.11-6.52-3.67-5.27a.94.94 0 0 1-1.37-.56c-.24-1.29 3.21-3.06.41-5.64-.92-.84-2.69-1.8-4.24-.53-1.09.9-2 1.39-2.49 1.11-1-.53-1.06-1.71-.78-3.14.54-2.68-3.83-5.45-4.88-4.05-3.24 4.31-5.48 9.72-9.35 13.62Z"/><path fill="#e55e4b" fill-rule="evenodd" d="M547.06 445.23c2.34.14 20.13 12.4 17.38 18.78-2.82 6.56-15.48 43.7-38.05 77-7.14 10.55-22.26 30-38.75 44.4h-70.56a36.71 36.71 0 0 1-5.24-18.94c0-23.41 20.84-37.29 37.91-49.31 23.72-16.68 58.89-39.62 97.31-71.93Z"/><path fill="#f27466" fill-rule="evenodd" d="M543.74 453c-25.87 21.29-52.7 40.33-80.3 59.4-6.67 4.62-17.37 11-26.73 18.85-52.47 43.93 10 48.32 40.23 37 11.31-4.25 20.67-14.45 36.52-37.85a303.64 303.64 0 0 0 25.54-47c2.63-5.93 5.11-11.91 7.49-17.95 1-2.45 1.88-5 2.86-7.43a39.81 39.81 0 0 0-5.61-5.02ZM510 448.13c4-11.31 8.15-24.11 9.42-36.06 1.29-12.11-8.68-24.9-19.76-28.9-19.23-6.95-34.68 11.74-43 26.49-9.08 16.13-16 34.49-21.61 52.11a462.74 462.74 0 0 0-7.87 27.8c-10.94 43.84 28.44 10.41 44-.6 21.31-15.04 30.11-16.32 38.82-40.84Z"/><path fill="#e55e4b" fill-rule="evenodd" d="M614.06 414.82c4.42 40.55 32.68 103.27 37.93 151.29.25 2.26.7 9.86 1.33 19.33h40.93q.07-3.72.07-7.45c0-79.23-21.42-150.84-55.91-202.18-15.63 3.78-26.21 22.05-24.35 39.01Z"/><path fill="#fb9113" fill-rule="evenodd" d="M799.56 585.65c-21.3-26.62-48.86-24.67-68.35 0Z"/><path fill="#fb8613" fill-rule="evenodd" d="M799.58 585.65c-5.9-7.37-12.27-12.55-18.82-15.67A66.72 66.72 0 0 0 766 585.65Z"/><path fill="#fb8613" fill-rule="evenodd" d="M799.53 585.65c-21.3-26.6-48.84-24.66-68.33 0Z"/><path fill="#fbaf4a" fill-rule="evenodd" d="M895.42 585.65c-33.18-35.75-82.8-38.09-110.13 0Z"/><path fill="#fb9f2f" fill-rule="evenodd" d="M895.42 585.65c-33.19-35.75-82.8-38.09-110.13 0Z"/><path fill="#e2bb8d" fill-rule="evenodd" d="M986.22 585.65c28-103.93-4.07-197.33-43.1-242-24.83-28.45-63.71-41.16-101.19-41.68-35.93-.5-73.14 9.51-99.83 37.26-52 54.05-49.84 175.75-33.52 246.47Z"/><path fill="#ebcfa8" fill-rule="evenodd" d="M886.13 585.65c12.49-62.29 26.62-133.47 32.93-196.95 4.27-42.94-9.75-69.4-67.87-74.55-37.81-3.35-76.85 2.07-106.68 22.6-.81.79-1.61 1.6-2.41 2.43-52 54.05-49.84 175.75-33.52 246.47Z"/><path fill="#d6a472" fill-rule="evenodd" d="M771.59 412c-17.75 52.7-11.59 126 4.7 173.67h9c-11.5-47.48-29.9-120.51-13.7-173.67Zm154.86 0c17.75 52.7 11.59 126-4.7 173.67h-9c11.5-47.48 29.9-120.51 13.7-173.67Z"/><path fill="#d9a97f" fill-rule="evenodd" d="M809.21 330.83c4.39-1 5.51-.81 9.9-1.8 2.63 4.84 5.58 10 11 14a33.1 33.1 0 0 0 10.22-12.44c14.77-3.88 22.25-6 29.15-17.24 6.25-2.31 31.45 11.12 27.37 17.22-17 23-68.11 22.5-93.48 7.75l6.57-7.69Z"/><path fill="#898686" fill-rule="evenodd" d="M764.93 216c-5.64-16.11-8.63-36-8.63-44.39 0-3.64 2-38.61 11.39-35 6.16 2.38 5.67 2.91 10.1-5.37 1.68-3.14 1.44-8.34 8.31-3 4.56 3.58 6.43 10.1 15.11-1.75 11.4-15.57 10.71 10.87 27.15-4 4.1-3.71 9.78-3.31 11.88 2.81 1.75 5.08 7.64 12.09 13.44 7.71 8.79-6.65 18.54 6.16 18.93 17.23.54 15.2 16.87-5.27 22.31 38.6 3.13 25.22-12.27 58.18-22.13 81.36-6.87 16.18-20.07 22.44-37.45 20.75-33.49-3.26-59.92-45.06-70.41-74.95Z"/><path fill="#fea682" fill-rule="evenodd" d="M793.32 273.26c12.82 14.14 16.13 37.76 6.45 55.1 7.74 11.75 66 12.91 75.3-2.84-10.38-22.7-13.73-75.13-9-93.71-11.28 3.81-61.83 36.73-72.75 41.45Z"/><path fill="#feceb4" fill-rule="evenodd" d="M773.72 188.8c-6 21.74 4.25 64.71 9.54 78.42 7.63 19.79 17.32 26.12 33.81 25.23 22.71-1.22 42.81-26.86 41-59.48-.9-16.85-4-31.35-10.82-41.95a10.51 10.51 0 0 1-2.16-6.89c.9-9.33 6.07-24.32 3.15-26.45-8.33-6.08-30.6 13.64-45.71 14.9-13.31 1.11-25.94 5.83-28.81 16.22Z"/><path fill="#fedfcd" fill-rule="evenodd" d="M775.11 205.5c.76 25.28 5.92 85.91 40.59 84 19.74-1.08 37.21-23.73 35.68-52.55-1.75-33.08-77.38-69.06-76.27-31.45Z"/><path fill="#aaa" fill-rule="evenodd" d="M760.45 143.61c1.7-5 4-8.27 7.24-7 6.16 2.38 5.67 2.91 10.1-5.37 1.68-3.14 1.44-8.34 8.31-3 4.56 3.58 6.43 10.1 15.11-1.75 11.4-15.57 10.71 10.87 27.15-4 4.1-3.71 9.78-3.31 11.88 2.81 1.75 5.08 7.64 12.09 13.44 7.71 3.91-3 8-2.06 11.4.82 2 4.52 3.08 4.66 3.08 14.28s-8.53 30.45-22.67 39.34c-1.89-1.9-2.08-21.79-3-26.57a51.44 51.44 0 0 0-16.3 10.65c-1.9 1.84-1.12 1.91-3.63 1.51a63.27 63.27 0 0 0-11.73-.74 78.69 78.69 0 0 0-8.28.27c-13.36 1.11-26 5.83-28.86 16.22-.25.92-.47 1.87-.67 2.85-2.69-.2-5.95-2.34-7.52-4.38-8.56-11.16-8.95-32.18-5.05-43.65Z"/><path fill="#898686" fill-rule="evenodd" d="M772.75 217.71c3.79-2.68 15-2.68 18.45-4.24 4.56-2.06-1.19-6.76-1.88-4.33-.44 1.57-4.08-2.23-5.89.39-.76 1.1-6.09 2.09-8.28 3.64a22.72 22.72 0 0 0-3.62 3c-1.11 1.25.1 2.34 1.22 1.54Zm59.59-6.23c-4.47-1.8-15.78.89-19.65.15-5.1-1-.42-7.11.85-4.82.83 1.47 3.59-3.23 6.05-1 1 .92 6.65.65 9.24 1.68a24.56 24.56 0 0 1 4.38 2.2c1.41.94.45 2.31-.87 1.79Z"/><path fill="#feceb4" fill-rule="evenodd" d="M873.21 213.12c3.22 8.16 1.91 14.5-3.17 21.68-4.18 5.9-10.07 9.92-13.91 5.84-.27-8-1.36-27.83-3.83-33.35 3.89-6.48 16.48-5.37 20.91 5.83Z"/><path fill="#fea682" fill-rule="evenodd" d="M861.93 210.29c5 .06 10.67 15.94-1.3 22a23.35 23.35 0 0 0 1.2-7.78c0-2.94-.54-8.41-2.31-12-1.29-2.51-1.33-2.26 2.41-2.22Z"/><path fill="#febea0" fill-rule="evenodd" d="M851.22 336.16c-7.44-36.36-24.13-43-45.86-31.63a46.37 46.37 0 0 1-5.59 23.83c3.23 4.91 15.16 14 28.76 14.76 7.47.42 17.8-4.8 22.69-6.96Z"/><path fill="#eae4e3" fill-rule="evenodd" d="M808.93 329.83c4.18-.94 5.24-.78 9.42-1.72 2.51 4.61 5.31 9.51 10.53 13.35a31.49 31.49 0 0 0 9.72-11.83l11.22 2c.17 2.08 2.94 4.17 3.11 6.25-14.16 7.32-31.87 9.78-49.51-.91l6.25-7.32Z"/><path fill="#dfd3d0" fill-rule="evenodd" d="M846.51 340.75c-1.2-4.77-3.45-9-7.91-11.12l11.22 2c.17 2.08 2.94 4.17 3.11 6.25a59.66 59.66 0 0 1-6.42 2.87Zm-36.42-.33c1.76-5.28 4.5-9.5 8.27-12.29-4.18.94-5.24.78-9.42 1.72l.74-.17-6.26 7.32a52.86 52.86 0 0 0 6.67 3.42Z"/><path fill="#f6f2f2" fill-rule="evenodd" d="M838.6 329.63c14.06-3.7 24.92-8.8 31.49-19.49 5.94-2.19 21.21 12.18 17.32 18-9.35 10.86-21.41 17.35-37.49 17.71-.64-7.6-4.53-12.93-11.32-16.22Z"/><path fill="#fff" fill-rule="evenodd" d="M838.6 329.63c12.07-3.18 21.78-7.38 28.44-15.27 3.55 4.41 5.51 9.24 5.51 14.31a22.55 22.55 0 0 1-5.18 13.9 51.93 51.93 0 0 1-17.45 3.28c-.64-7.6-4.53-12.93-11.32-16.22Zm-20.21-1.52c-9.78-4.88-13.17-18.23-13.24-20.2-3.81-2.38-19.06 6.42-18.5 11.94 1.74 14.09 9.83 21.21 19 22.92 1.4-8.27 7.53-10.77 12.74-14.66Z"/><path fill="#595858" fill-rule="evenodd" d="M1137 164.08a21.47 21.47 0 0 0-16.77 8 16.85 16.85 0 0 0-32.28-1.68 21.52 21.52 0 0 0-32.27 13.13 16.83 16.83 0 0 0-14.16 21.76 21.52 21.52 0 0 0-8.94 33.32 16.84 16.84 0 0 0 .93 29.43 13.33 13.33 0 0 0 10 22.12 13.73 13.73 0 0 0 2.67-.27 11.52 11.52 0 0 0 10.15 16.95 11.56 11.56 0 0 0 5.55-1.42 11.52 11.52 0 0 0 19.39 6 21.56 21.56 0 0 0 20.36.11 21.53 21.53 0 0 0 24.07-7 21.58 21.58 0 0 0 22.75-6.92 11.52 11.52 0 0 0 14.93-13.92 13.33 13.33 0 0 0 10.62-13.05 12.46 12.46 0 0 0-.11-1.73 16.82 16.82 0 0 0-1.91-25.23 11.52 11.52 0 0 0-.16-21.93 21.51 21.51 0 0 0-13.35-35.51v-.65a21.51 21.51 0 0 0-21.47-21.51Z"/><path fill="#fb9113" fill-rule="evenodd" d="M1140.42 585.7c13.14-9.35 27.57-8.92 40.12 0Z"/><path fill="#fb8613" fill-rule="evenodd" d="M1140.39 585.7a40.64 40.64 0 0 1 6.1-3.61q2.21 1.68 4.29 3.61Z"/><path fill="#fb8613" fill-rule="evenodd" d="M1140.45 585.7c13.13-9.34 27.56-8.91 40.1 0Z"/><path fill="#fbaf4a" fill-rule="evenodd" d="M1054.08 585.7c25.31-18.92 56.73-19.85 78.82 0Z"/><path fill="#fb9f2f" fill-rule="evenodd" d="M1054.08 585.7c25.31-18.92 56.73-19.85 78.82 0Z"/><path fill="#cc3e2f" fill-rule="evenodd" d="M955.1 585.7c-7.1-132.56 42.74-239.12 155.16-237.8 46.42.55 58.57 10 85.25 34.62 47.91 44.3 44.92 139 43.45 203.18Z"/><path fill="#e55e4b" fill-rule="evenodd" d="M1178.34 367.47c5.34 4.22 10.85 9.21 17.17 15 47.91 44.3 44.92 139 43.45 203.18h-167.74c-16.39-6.32-28.4-81-12.85-140.34 14.63-55.72 66.98-92.55 119.97-77.84Z"/><path fill="#aa241a" fill-rule="evenodd" d="M1040.72 495.47c-10.64 27-8.07 63.84.68 90.23h6.36c-7.36-26.28-16.76-62.94-7.04-90.23Z"/><path fill="#fea682" fill-rule="evenodd" d="M1145 312.47c-11.66 12.85-14.66 34.32-5.86 50.07-7 10.68-59.94 11.73-68.42-2.58 9.43-20.63 12.47-68.27 8.16-85.15 10.25 3.46 56.19 33.38 66.12 37.66Z"/><path fill="#feceb4" fill-rule="evenodd" d="M1162.79 235.73c5.46 19.76-3.85 58.8-8.66 71.26-6.93 18-15.74 23.73-30.73 22.92-20.63-1.11-38.89-24.4-37.3-54.05.83-15.31 3.68-28.49 9.84-38.11 11.77-18.42 19.26-18.54 40.63-16.76 12.14 1.01 23.62 5.3 26.22 14.74Z"/><path fill="#fedfcd" fill-rule="evenodd" d="M1161.53 250.9c-.68 23-5.37 78.07-36.88 76.34-17.93-1-33.81-21.56-32.42-47.75 1.59-30.07 70.32-62.76 69.3-28.59Z"/><path fill="#595858" fill-rule="evenodd" d="M1164.32 256.35c-3.44-2.44-13.61-2.43-16.76-3.85-4.15-1.87 1.08-6.14 1.7-3.94.41 1.43 3.72-2 5.36.36.69 1 5.53 1.9 7.53 3.31a20.36 20.36 0 0 1 3.28 2.76c1.01 1.1-.09 2.08-1.11 1.36Zm-54.14-5.66c4.06-1.64 14.33.81 17.85.14 4.64-.89.39-6.46-.77-4.39-.75 1.35-3.27-2.93-5.5-.92-.93.84-6 .59-8.39 1.53a21.18 21.18 0 0 0-4 2c-1.27.87-.37 2.13.81 1.64Z"/><path fill="#febea0" fill-rule="evenodd" d="M1087.52 368.76c9.27-28.57 25.72-36.57 46.69-30.62a42.57 42.57 0 0 0 4.92 24.4c-4.96 7.53-32.7 10.27-51.61 6.22Z"/><path fill="#aa241a" fill-rule="evenodd" d="M1182.26 495.47c5.31 27 4 63.84-.35 90.23h-3.18c3.68-26.28 8.38-62.94 3.53-90.23Z"/><path fill="#f99085" fill-rule="evenodd" d="M1121.84 406.11c31.71 0 58.51 30.74 59.85 68.66s-23.29 68.67-55 68.67-58.5-30.74-59.84-68.67 23.28-68.66 55-68.66Zm-38.52 67.67c1 27.59 20.47 50 43.55 50s41-22.37 40-50-20.47-50-43.54-50-40.99 22.41-40.01 50Z"/><path fill="#3b3348" fill-rule="evenodd" d="M1125.48 445.28c-12.48 0-22.17 12.11-21.65 27s11.08 27 23.56 27 22.18-12.1 21.65-27-11.04-27-23.56-27Z"/><path fill="#757575" fill-rule="evenodd" d="M1075.87 233.48a14.08 14.08 0 0 0-.37 3.2 13.73 13.73 0 0 0 27.4 1.32 21.51 21.51 0 0 0 5.25-33 14 14 0 0 0 .9-5 14.19 14.19 0 0 0-28.38 0v1.07a21.51 21.51 0 0 0-4.85 32.35Z"/><path fill="#feceb4" fill-rule="evenodd" d="M1072.4 257.83c-2.93 7.41-1.74 13.17 2.88 19.7 3.8 5.36 9.15 9 12.64 5.3.24-7.27 1.23-25.28 3.47-30.3-3.53-5.89-14.97-4.88-18.99 5.3Z"/><path fill="#fea682" fill-rule="evenodd" d="M1082.65 255.25c-4.59.06-9.7 14.49 1.17 20a21.33 21.33 0 0 1-1.08-7.07c0-2.67.49-7.64 2.09-10.86 1.17-2.32 1.17-2.11-2.18-2.07Z"/><path fill="#898686" fill-rule="evenodd" d="M1104.37 198.47a26.89 26.89 0 0 0-2.73 11.87c0 14.4 11.18 26.14 25.15 26.62a20.6 20.6 0 0 0 15 6.48 20.33 20.33 0 0 0 7.73-1.52 17.72 17.72 0 0 0 7.45 1.63 18.12 18.12 0 0 0 14.75-7.65 11.17 11.17 0 0 0 3.54.57 11.5 11.5 0 0 0 11.37-11.62 11.7 11.7 0 0 0-4.23-9 11.75 11.75 0 0 0 4-8.87 11.56 11.56 0 0 0-9.53-11.47 18.44 18.44 0 0 0-18.13-16.29 17.91 17.91 0 0 0-8.84 2.33 11.22 11.22 0 0 0-17.55-1.48 10.49 10.49 0 0 0-17.68 1.49 10.44 10.44 0 0 0-1.59-.13 10.74 10.74 0 0 0-10.62 10.86 10.92 10.92 0 0 0 1.91 6.18Z"/><path fill="#f99085" fill-rule="evenodd" d="M971.5 575c-1.5-47.37 4.5-91.06 18.27-127.2h2.19c2.09 0 4.16 0 6.23.06-13.76 36.23-19.76 80-18.26 127.55-2.83-.12-5.64-.24-8.43-.41Z"/><path fill="#3b3348" fill-rule="evenodd" d="M993.68 568.62a377.21 377.21 0 0 1 6-76c2.8.09 5.58.24 8.34.43a377.12 377.12 0 0 0-5.93 75.39q-4.16.15-8.41.18Z"/></g></svg>