<svg xmlns="http://www.w3.org/2000/svg" viewBox="0 0 3201 1600"><g class="color000000 svgShape" data-name="Layer 1"><path fill="#ffe8e8" d="M2862.13 1428.05v1.4q0 26.74-1.13 53.28H323.63q-1.12-26.51-1.13-53.28v-1.4c.76-700.68 569-1268.44 1269.84-1268.44s1269.04 567.76 1269.79 1268.44Z" class="colore8f8ff svgShape"/><path fill="#ffcdcd" d="M276 1067s-45.78-55.25-82.27-65-61.57 19.72-33.56 44.24c26.21 22.91 77.41 5.76 115.83 20.76ZM285.72 1003.14s11.31-70.86 37.75-97.83 63-14.34 51.4 21c-10.87 33.11-63.71 44.36-89.15 76.83ZM352.48 1161.83s-14.28-40.45-15.28-68.83c-1.32-37.64 23.43-69.26 49.36-55.34 19.78 10.62 14 40.44-12.56 73.11-23.65 29.11-21.52 51.06-21.52 51.06ZM246.29 914.67c-9.08-23.21-33.74-89.49-57.38-111.49s-43.62-10.25-49-5-16 26.37 3.64 52.88c20.45 27.51 102.74 63.61 102.74 63.61ZM257.47 824.68c-6.54-17.42-29.93-86.31-32.49-114.86s10.24-50.94 35.36-51.15c21.93-.19 38.76 18.51 36.53 50-2.1 29.74-39.4 116.01-39.4 116.01Z" class="colorcdefff svgShape"/><path fill="#ffcdcd" d="M421.9 1308.61a1.4 1.4 0 0 0 .42-.28 1.49 1.49 0 0 0 0-2.1c-18.06-18.9-95.12-144.06-121.28-225.86-29.7-92.84-54.6-201.7-35.81-368.16a1.48 1.48 0 1 0-2.95-.34c-18.85 167 6.12 276.25 35.93 369.41 27.41 85.7 104.58 208.81 122 227a1.48 1.48 0 0 0 1.69.33Z" class="colorcdefff svgShape"/><path fill="#ffcdcd" d="M268.86 957.88a1.48 1.48 0 0 0 .8-1.81c-13.46-41.79-71.48-108.14-97.78-128.19a1.49 1.49 0 0 0-1.8 2.37c26 19.84 83.46 85.46 96.75 126.73a1.48 1.48 0 0 0 1.87 1 .44.44 0 0 0 .16-.1ZM286.48 1036.26a1.48 1.48 0 0 0 .82-1.77c-14-47.1 36-85.44 51.67-96.07a1.48 1.48 0 0 0 .39-2.06 1.51 1.51 0 0 0-2.06-.4c-16.08 10.92-67.41 50.35-52.85 99.37a1.48 1.48 0 0 0 1.85 1 .67.67 0 0 0 .18-.07ZM307.43 1102.52l.13-.06a1.49 1.49 0 0 0 .57-2c-24.74-44-85-69.07-119-70.23a1.5 1.5 0 0 0-1.54 1.44 1.49 1.49 0 0 0 1.44 1.53c33.29 1.13 92.29 25.64 116.5 68.72a1.48 1.48 0 0 0 1.9.6ZM368 1225.92l.16-.08a1.49 1.49 0 0 0 .51-2c-20.35-34.08-20.8-120.55-.79-151.68a1.48 1.48 0 1 0-2.5-1.6c-20.43 31.79-20 120 .74 154.81a1.49 1.49 0 0 0 1.88.55ZM2802.66 1201.17s.55-2.25 1.59-6.46 2.36-10.46 4.14-18.37c3.48-15.76 8.37-38.27 14.63-65.18s13.9-58.22 23.35-91.4c4.67-16.62 10-33.57 15.86-50.74s11.65-34.72 17.37-52.25c11.45-35.07 22.55-70.24 33.14-103.14 5.32-16.45 10.47-32.34 15.66-47.3 2.59-7.48 5.35-14.63 8.11-21.57s5.11-13.76 7.46-20.26c9.34-26 17.24-47.7 23.92-62.38 3.33-7.34 3.11-7.45-.32-.15-6.9 14.61-15.12 36.18-24.82 62.08-2.44 6.46-5 13.21-7.73 20.11s-5.74 14.07-8.44 21.53c-5.41 14.91-10.79 30.74-16.34 47.11-11.06 32.77-22.66 67.77-34.59 102.66-6 17.45-12 34.84-18.09 51.94s-11.74 34.16-16.66 50.76c-10 33.19-18 64.5-24.71 91.36s-11.87 49.35-15.57 65l-4.34 18.1-1.67 6.4Z" class="colorcdefff svgShape"/><path fill="#ffcdcd" d="M2804.67 1178.32c40-8.12 41.08 12.16 68.14 2.35 52.22-19 66-62.46 66-62.46a200.88 200.88 0 0 1-36.79 16.66c-21.41 7.23-32.89.94-51.91 12.4s-49.36 31.84-45.44 31.05Z" class="colorcdefff svgShape"/><path fill="#ffcdcd" d="M2804.52 1179.83c-29.47-28.22-41.23-11.65-58.85-34.4-34-43.9-22.39-88-22.39-88a200.77 200.77 0 0 0 22.19 33.74c14.23 17.54 27.29 18.35 37.24 38.21s24.69 53.22 21.81 50.45ZM2834.62 1062.91c22 5.17 44.27-.62 64.67-15.18 31.81-22.72 32.64-55.29 32.64-55.29s-21.51 31.15-48.31 35.84-48.23 24.66-48.23 24.66Z" class="colorcdefff svgShape"/><path fill="#ffcdcd" d="M2831.38 1062.57c-21.64-6.44-38.1-22.53-48.56-45.3-16.3-35.51-.83-64.18-.83-64.18s3.18 37.71 24.1 55.1 29.59 45.34 29.59 45.34ZM2867.69 950.93c14.68 4.9 42.08 2.7 69.6-16.33S2971 899 2971 899s-26.1 19.41-43.39 18.37-58.54 23.28-58.54 23.28Z" class="colorcdefff svgShape"/><path fill="#ffcdcd" d="M2867.24 951.15c-14.92-4.08-36.5-21.11-48.8-52.21s-8.25-48.34-8.25-48.34 10.93 30.63 25.89 39.36 35.75 51.85 35.75 51.85ZM2894 862.8c13.26 4.49 38.95-7.14 55.21-23.91s21.83-27 25.44-34.43-23.73 20.46-41.31 23.16-37.1 27.38-37.1 27.38Z" class="colorcdefff svgShape"/><path fill="#ffcdcd" d="M2894.84 864c-13.89-1.75-31.92-23.43-39.21-45.61s-7.8-33.85-7.82-42.08 12.4 28.77 27 38.87 21.46 40.82 21.46 40.82ZM2923.12 773.14c23 2.63 40.69-11.49 51.36-22.25s24.38-36.33 21.52-32.89-18 4.12-36.08 15.46-36.8 39.68-36.8 39.68Z" class="colorcdefff svgShape"/><path fill="#ffcdcd" d="M2924.1 774.61c-18.62-13.66-22-36.07-22.53-51.21s6.84-43.21 6.63-38.77 10.39 15.24 15.94 35.86-.04 54.12-.04 54.12ZM2995 597.87c.67 16.21-4.95 49.18-20.14 62.53s-15-18.09-2.34-32.79a311.74 311.74 0 0 0 22.48-29.74ZM2954.11 692.93c2.24 10.6 44.36-16.36 48.54-31.19 1.86-6.61-1.94 5.06-18.76 10.52s-32.18 9.3-29.78 20.67Z" class="colorcdefff svgShape"/><path fill="#ffcdcd" d="M2955.22 695.78c-8.56 6.65-23.33-41.11-16.95-55.13 2.85-6.25-1.79 5.11 7.54 20.13s18.59 27.86 9.41 35ZM98.83 1032.75c1.86 131.84-22.91 433.11 324.23 423.33 64.32-1.82 50.92-210.23-90-311.81-86.06-62.06-234.23-111.52-234.23-111.52Z" class="colorcdefff svgShape"/><path fill="#fff" d="M443.17 1447c-83.46-48.06-283.4-278.31-345.66-413.68l2.63-1.22c66.41 144.4 269 368.93 344.47 412.39Z" class="colorffffff svgShape"/><path fill="#fff" d="m213.94 1210.86-1.36.06c-3.27.15-80.49 3.22-109.62-26.45l2.07-2c26.17 26.66 95.47 25.91 106.06 25.63.2-11.78 1.28-95.92-7.81-133.43l2.82-.68c9.83 40.54 7.89 134.6 7.87 135.55ZM329.74 1347.17c-6.25 1.81-113 31.95-168.14 7.18l1.19-2.64c52.87 23.75 154.79-4.09 165.5-7.13 1.59-12.92 18.33-153.07 3.4-199.87l2.77-.88c15.76 49.44-2.62 195.85-3.41 202.06l-.12.94-.91.26Z" class="colorffffff svgShape"/><path fill="#e59999" d="M1158.19 173.76a61.58 61.58 0 0 0-123.16-.2c-72.17 10.44-346.62 30.1-346.62 100.5v1031.22a127.47 127.47 0 0 0 127.47 127.47h561.44a127.47 127.47 0 0 0 127.47-127.47V274.06c0-70.4-274.65-89.81-346.6-100.3Z" class="color99cbe5 svgShape"/><path fill="#e55f5f" d="M1447.51 351.4v953.9a70.24 70.24 0 0 1-70.19 70.15H815.88a70.26 70.26 0 0 1-70.19-70.15V351.4a70.27 70.27 0 0 1 70.19-70.16h561.44a70.25 70.25 0 0 1 70.19 70.16Z" class="color5fb6e5 svgShape"/><path fill="#a12a2a" d="M745.69 722.57c56.41-60.56 344.47-18.27 499.19-31.71S1447.51 724 1447.51 724l-8.92 153.45H768.24Z" class="colord13050 svgShape"/><path fill="#e23434" d="M1447.51 724v581.3a70.24 70.24 0 0 1-70.19 70.15H815.88a70.26 70.26 0 0 1-70.19-70.15V722.57c167.74 30.95 483.47-9.57 701.82 1.43Z" class="colore23457 svgShape"/><path fill="#fff" d="M1373 967.27a14.33 14.33 0 0 1-14.3-14.27V520.41a14.33 14.33 0 0 1 14.3-14.32 14.32 14.32 0 0 1 14.32 14.32V953a14.32 14.32 0 0 1-14.32 14.27ZM1373 1323.9a14.33 14.33 0 0 1-14.33-14.32v-242.53a14.33 14.33 0 0 1 14.33-14.32 14.32 14.32 0 0 1 14.32 14.32v242.53a14.32 14.32 0 0 1-14.32 14.32Z" class="colorffffff svgShape" opacity=".42"/><path fill="#e55f5f" d="M1096.6 144.44a27.07 27.07 0 0 1 27.07 27.07v127.85h-54.14V171.51a27.07 27.07 0 0 1 27.07-27.07Z" class="color5fb6e5 svgShape"/><path fill="#ffcdcd" d="M3089.84 914.41c16.66-19.84 35.48 210.51-58.86 386.38-63.91 119.15-255.87 158.76-255.87 158.76s-71.69-109.75 17.63-281.62 223.89-176.29 297.1-263.52Z" class="colorcdefff svgShape"/><path fill="#fff" d="m2775.91 1460.14-1.61-1.19c2.53-3.42 253.94-344.41 317.88-545.8l1.91.6c-64.04 201.71-315.64 542.97-318.18 546.39Z" class="colorffffff svgShape"/><path fill="#fff" d="m2993.09 1126-.21-1.08c-.79-3.92-19-96.33-2.84-136.65l1.86.75c-15 37.45.7 123.71 2.73 134.41 9.64-3 81.91-26.27 103.47-54.53l1.59 1.21c-23.39 30.67-102.2 54.57-105.54 55.57ZM2913.9 1257.21l-.35-.58c-.63-1.08-63.27-108.69-44.37-183.85l1.94.49c-18 71.51 38.86 173.1 43.82 181.75 10-1.53 126.23-19.79 151.17-38.4l1.2 1.61c-26.33 19.64-147.59 38.1-152.74 38.88ZM2827.49 1386.18l-.29-.54c-.63-1.15-62.62-116.05-43.73-191.2l1.94.49c-18 71.75 38.65 180.54 43.26 189.2 9.72-.35 129.39-5.33 164.9-35.3l1.29 1.53c-37.37 31.55-161.49 35.64-166.75 35.8Z" class="colorffffff svgShape"/><path fill="#e59999" d="M2341.74 714v594.43c0 30.73-10.95 57.66-27.36 72.59-8.67 7.9-18.87 12.45-29.78 12.45-31.55 0-57.13-38.07-57.13-85V714q50-19.18 99.95-4.82 7.16 2.06 14.32 4.82Z" class="color99cbe5 svgShape"/><path fill="#e23434" d="M2284.6 825.7c-29.54 0-53.49 3.32-53.49 7.41v462c0 44 23.94 79.6 53.48 79.6 29.54 0 53.49-35.64 53.49-79.6v-462c.01-4.11-23.94-7.41-53.48-7.41Z" class="colore23457 svgShape"/><path d="M2341.74 714v594.43c0 30.73-10.95 57.66-27.36 72.59V725s22.62-12.84 27.36-11Z" style="mix-blend-mode:multiply" fill="#ffe0e0" class="colore0f4ff svgShape"/><path fill="#fff" d="M2262 1351.05a2.51 2.51 0 0 1-1.34-.42c-24.43-15.52-24.41-61.68-24.41-76.84v-.66c0-14.15 2.82-529.18 2.85-534.38 0-2.8 1.55-5 3.42-5 1.89 0 3.41 2.32 3.39 5.13 0 5.2-2.85 520.19-2.85 534.3v.66c0 14.94 0 54.6 20.26 67.48 1.74 1.11 2.54 4.1 1.8 6.68-.48 1.89-1.75 3.05-3.12 3.05Z" class="colorffffff svgShape" opacity=".42"/><path fill="#bfadad" d="M2357.15 663.26v54.61c0 5.5-3.45 9.93-7.7 9.93h-129.72c-4.25 0-7.67-4.43-7.67-9.93v-54.61c0-5.5 3.42-9.93 7.67-9.93h129.72c4.25 0 7.7 4.43 7.7 9.93Z" class="colorbfadad svgShape"/><path d="M2357.15 713.73v4.14c0 5.5-3.45 9.93-7.7 9.93h-129.72c-4.25 0-7.67-4.43-7.67-9.93v-4.14Z" style="mix-blend-mode:multiply" fill="#ebd4d4" class="colorebd4d4 svgShape"/><path fill="#a68a8a" d="M2238.34 718.08a2.06 2.06 0 0 1-2.06-2.06V665.1a2.05 2.05 0 0 1 2.06-2.05 2.05 2.05 0 0 1 2 2.05V716a2.05 2.05 0 0 1-2 2.08ZM2269.18 718.08a2.06 2.06 0 0 1-2.06-2.06V665.1a2.05 2.05 0 0 1 2.06-2.05 2.05 2.05 0 0 1 2.05 2.05V716a2.05 2.05 0 0 1-2.05 2.08ZM2300 718.08a2.06 2.06 0 0 1-2-2.08v-50.9a2.05 2.05 0 0 1 2.06-2.05 2.05 2.05 0 0 1 2.05 2.05V716a2.05 2.05 0 0 1-2.11 2.08ZM2330.86 718.08a2.06 2.06 0 0 1-2.06-2.06V665.1a2.05 2.05 0 0 1 2.06-2.05 2.05 2.05 0 0 1 2 2.05V716a2.05 2.05 0 0 1-2 2.08Z" class="colora68a8a svgShape"/><path fill="#e59999" d="M2565.88 714v594.43c0 30.73-11 57.66-27.36 72.59-8.68 7.9-18.87 12.45-29.78 12.45-31.56 0-57.14-38.07-57.14-85V714q50-19.18 100-4.82 7.12 2.06 14.28 4.82Z" class="color99cbe5 svgShape"/><path fill="#e23434" d="M2508.74 825.7c-29.55 0-53.5 3.32-53.5 7.41v462c0 44 24 79.6 53.49 79.6 29.54 0 53.49-35.64 53.49-79.6v-462c.01-4.11-23.94-7.41-53.48-7.41Z" class="colore23457 svgShape"/><path d="M2565.88 714v594.43c0 30.73-11 57.66-27.36 72.59V725s22.58-12.84 27.36-11Z" style="mix-blend-mode:multiply" fill="#ffe0e0" class="colore0f4ff svgShape"/><path fill="#fff" d="M2486.18 1351.05a2.48 2.48 0 0 1-1.34-.42c-24.44-15.52-24.42-61.68-24.41-76.84v-.66c0-14.15 2.82-529.18 2.85-534.38 0-2.8 1.54-5 3.42-5 1.89 0 3.4 2.32 3.39 5.13 0 5.2-2.85 520.19-2.85 534.3v.66c0 14.94 0 54.6 20.25 67.48 1.74 1.11 2.55 4.1 1.81 6.68-.53 1.89-1.79 3.05-3.12 3.05Z" class="colorffffff svgShape" opacity=".42"/><path fill="#bfadad" d="M2581.29 663.26v54.61c0 5.5-3.45 9.93-7.7 9.93h-129.73c-4.24 0-7.67-4.43-7.67-9.93v-54.61c0-5.5 3.43-9.93 7.67-9.93h129.73c4.25 0 7.7 4.43 7.7 9.93Z" class="colorbfadad svgShape"/><path d="M2581.29 713.73v4.14c0 5.5-3.45 9.93-7.7 9.93h-129.73c-4.24 0-7.67-4.43-7.67-9.93v-4.14Z" style="mix-blend-mode:multiply" fill="#ebd4d4" class="colorebd4d4 svgShape"/><path fill="#a68a8a" d="M2462.48 718.08a2.06 2.06 0 0 1-2.06-2.06V665.1a2.05 2.05 0 0 1 2.06-2.05 2.05 2.05 0 0 1 2.05 2.05V716a2.05 2.05 0 0 1-2.05 2.08ZM2493.32 718.08a2.06 2.06 0 0 1-2.06-2.06V665.1a2.05 2.05 0 0 1 2.06-2.05 2.05 2.05 0 0 1 2 2.05V716a2.05 2.05 0 0 1-2 2.08ZM2524.16 718.08a2.06 2.06 0 0 1-2.06-2.06V665.1a2.05 2.05 0 0 1 2.06-2.05 2.05 2.05 0 0 1 2.05 2.05V716a2.05 2.05 0 0 1-2.05 2.08ZM2555 718.08a2.06 2.06 0 0 1-2.06-2.06V665.1a2.05 2.05 0 0 1 2.06-2.05 2.05 2.05 0 0 1 2.05 2.05V716a2.05 2.05 0 0 1-2.05 2.08Z" class="colora68a8a svgShape"/><path fill="#e59999" d="M2790 714v594.43c0 30.73-11 57.66-27.36 72.59-8.68 7.9-18.87 12.45-29.78 12.45-31.56 0-57.14-38.07-57.14-85V714q50-19.18 100-4.82 7.13 2.06 14.28 4.82Z" class="color99cbe5 svgShape"/><path fill="#e23434" d="M2732.87 825.7c-29.54 0-53.49 3.32-53.49 7.41v462c0 44 23.95 79.6 53.49 79.6 29.54 0 53.49-35.64 53.49-79.6v-462c.01-4.11-23.94-7.41-53.49-7.41Z" class="colore23457 svgShape"/><path d="M2790 714v594.43c0 30.73-11 57.66-27.36 72.59V725s22.6-12.84 27.36-11Z" style="mix-blend-mode:multiply" fill="#ffe0e0" class="colore0f4ff svgShape"/><path fill="#fff" d="M2710.32 1351.05a2.45 2.45 0 0 1-1.34-.42c-24.44-15.52-24.42-61.68-24.42-76.84v-.66c0-14.15 2.83-529.18 2.85-534.38 0-2.8 1.55-5 3.42-5 1.89 0 3.41 2.32 3.39 5.13 0 5.2-2.85 520.19-2.85 534.3v.66c0 14.94 0 54.6 20.26 67.48 1.74 1.11 2.54 4.1 1.8 6.68-.52 1.89-1.78 3.05-3.11 3.05Z" class="colorffffff svgShape" opacity=".42"/><path fill="#bfadad" d="M2805.42 663.26v54.61c0 5.5-3.45 9.93-7.69 9.93H2668c-4.24 0-7.67-4.43-7.67-9.93v-54.61c0-5.5 3.43-9.93 7.67-9.93h129.73c4.27 0 7.69 4.43 7.69 9.93Z" class="colorbfadad svgShape"/><path d="M2805.42 713.73v4.14c0 5.5-3.45 9.93-7.69 9.93H2668c-4.24 0-7.67-4.43-7.67-9.93v-4.14Z" style="mix-blend-mode:multiply" fill="#ebd4d4" class="colorebd4d4 svgShape"/><path fill="#a68a8a" d="M2686.61 718.08a2.05 2.05 0 0 1-2.05-2.06V665.1a2.05 2.05 0 0 1 2.05-2.05 2.05 2.05 0 0 1 2.06 2.05V716a2.06 2.06 0 0 1-2.06 2.08ZM2717.45 718.08a2.05 2.05 0 0 1-2-2.06V665.1a2.05 2.05 0 0 1 2-2.05 2.05 2.05 0 0 1 2.06 2.05V716a2.06 2.06 0 0 1-2.06 2.08ZM2748.29 718.08a2.05 2.05 0 0 1-2.05-2.06V665.1a2.05 2.05 0 0 1 2.05-2.05 2.05 2.05 0 0 1 2.06 2.05V716a2.06 2.06 0 0 1-2.06 2.08ZM2779.13 718.08a2.05 2.05 0 0 1-2.05-2.06V665.1a2.05 2.05 0 0 1 2.05-2.05 2.05 2.05 0 0 1 2.06 2.05V716a2.06 2.06 0 0 1-2.06 2.08Z" class="colora68a8a svgShape"/><path fill="#e9b6b6" d="M2137.36 1345.39h740.47v58.68h-740.47zM2186.45 937.36h644.59v24.28h-644.59z" class="colore9c6b6 svgShape"/><path fill="#e9b6b6" d="M2146.92 1433.1h-26.35l65.88-495.74h26.35l-65.88 495.74zM2896.91 1433.1h-26.35l-65.87-495.74h26.34l65.88 495.74z" class="colore9c6b6 svgShape"/><path fill="#626262" d="M720.49 423.66h123a311.05 311.05 0 0 1 43.11 3 118 118 0 0 1 38.92 12.12 74.66 74.66 0 0 1 28 25.4q10.71 16.34 10.72 43.35 0 28-15.62 46.38t-41.25 26.34v.93a94.13 94.13 0 0 1 29.6 9.08 79.12 79.12 0 0 1 22.84 17.25 73.49 73.49 0 0 1 14.7 24.49 85.94 85.94 0 0 1 5.13 29.83q0 26.11-11.19 43.58a87.91 87.91 0 0 1-28.9 28.2A126.49 126.49 0 0 1 899.7 749a213.1 213.1 0 0 1-44 4.66H720.49Zm72.71 131.91h52.67a74.17 74.17 0 0 0 16.54-1.86 45.73 45.73 0 0 0 14.69-6.06 31.66 31.66 0 0 0 10.48-11.19 33.51 33.51 0 0 0 4-16.78q0-10.24-4.43-17a31 31 0 0 0-11.42-10.49 54.71 54.71 0 0 0-15.85-5.36 94.93 94.93 0 0 0-17.25-1.63H793.2Zm0 136.57h65.25a79.83 79.83 0 0 0 17-1.87 44.72 44.72 0 0 0 15.62-6.52 37.16 37.16 0 0 0 11.42-12.12q4.43-7.46 4.43-18.18 0-11.64-5.83-18.88a37.09 37.09 0 0 0-14.68-11 75.91 75.91 0 0 0-19.11-5.13 142.34 142.34 0 0 0-19.11-1.39h-55ZM1025.32 423.66H1098v262.88h134.7v67.12h-207.38ZM1255.1 588.66q0-39.6 13.28-71.77t37.06-54.77a163.29 163.29 0 0 1 56.4-34.73q32.61-12.12 71.31-12.12t71.31 12.12a163.48 163.48 0 0 1 56.4 34.73q23.78 22.61 37.06 54.77t13.28 71.77q0 39.63-13.28 71.78t-37.06 54.77a163.15 163.15 0 0 1-56.4 34.72q-32.62 12.12-71.31 12.12t-71.31-12.12a163 163 0 0 1-56.4-34.72q-23.78-22.61-37.06-54.77t-13.28-71.78Zm75.51 0q0 23.31 7.22 42.65a97.65 97.65 0 0 0 20.74 33.56A94.56 94.56 0 0 0 1391 687q18.87 7.93 42.18 7.92t42.18-7.92a94.52 94.52 0 0 0 32.39-22.14 97.67 97.67 0 0 0 20.75-33.56q7.21-19.34 7.22-42.65a121.72 121.72 0 0 0-7.22-42.41 97.36 97.36 0 0 0-20.75-33.79 94.52 94.52 0 0 0-32.39-22.14q-18.87-7.94-42.18-7.93t-42.18 7.94a94.56 94.56 0 0 0-32.4 22.14 97.34 97.34 0 0 0-20.74 33.79 121.48 121.48 0 0 0-7.25 42.41ZM1642.89 588.66q0-39.6 13.28-71.77t37.06-54.77a163.29 163.29 0 0 1 56.4-34.73q32.61-12.12 71.31-12.12t71.31 12.12a163.38 163.38 0 0 1 56.4 34.73q23.77 22.61 37.06 54.77t13.29 71.77q0 39.63-13.28 71.78t-37.06 54.77a163.06 163.06 0 0 1-56.4 34.72q-32.62 12.12-71.31 12.12t-71.31-12.12a163 163 0 0 1-56.4-34.72q-23.77-22.61-37.06-54.77t-13.29-71.78Zm75.51 0q0 23.31 7.22 42.65a97.65 97.65 0 0 0 20.74 33.56 94.56 94.56 0 0 0 32.4 22.14q18.87 7.93 42.18 7.92t42.18-7.92a94.66 94.66 0 0 0 32.4-22.14 97.8 97.8 0 0 0 20.74-33.56q7.21-19.34 7.22-42.65a121.72 121.72 0 0 0-7.22-42.41 97.49 97.49 0 0 0-20.74-33.79 94.66 94.66 0 0 0-32.4-22.14q-18.87-7.94-42.18-7.93t-42.18 7.93a94.56 94.56 0 0 0-32.4 22.14 97.34 97.34 0 0 0-20.74 33.79 121.48 121.48 0 0 0-7.22 42.41ZM2048.39 423.66h109.07a311.46 311.46 0 0 1 75.27 8.86q35.66 8.87 62.23 28.67t42.18 51.5q15.62 31.71 15.62 76.91 0 40.08-15.15 70.61a151.85 151.85 0 0 1-40.79 51.27 180.13 180.13 0 0 1-59.19 31.46 229.5 229.5 0 0 1-70.38 10.72h-118.86Zm72.71 262.88h37.76a203.09 203.09 0 0 0 46.84-5.12q21.68-5.13 37.52-17a81.56 81.56 0 0 0 24.94-31.22q9.09-19.33 9.09-47.31 0-24.24-9.09-42.19a84.49 84.49 0 0 0-24.47-29.59 107.25 107.25 0 0 0-36.13-17.48 160.62 160.62 0 0 0-43.58-5.83h-42.88ZM331.76 983h109.07a311.46 311.46 0 0 1 75.27 8.85q35.67 8.86 62.23 28.67t42.18 51.5q15.62 31.71 15.62 76.91 0 40.1-15.15 70.61a151.73 151.73 0 0 1-40.79 51.27 180.13 180.13 0 0 1-59.19 31.45 229.51 229.51 0 0 1-70.38 10.74H331.76Zm72.71 262.88h37.76a203.07 203.07 0 0 0 46.84-5.13q21.68-5.12 37.52-17a81.67 81.67 0 0 0 24.94-31.23q9.09-19.34 9.09-47.31 0-24.24-9.09-42.18a84.44 84.44 0 0 0-24.47-29.6 107.29 107.29 0 0 0-36.12-17.48 160.62 160.62 0 0 0-43.58-5.83h-42.89ZM667.81 1148q0-39.6 13.29-71.77t37-54.77a163.48 163.48 0 0 1 56.4-34.73q32.63-12.11 71.32-12.11t71.31 12.11a163.48 163.48 0 0 1 56.4 34.73q23.77 22.61 37 54.77t13.29 71.77q0 39.63-13.29 71.79t-37 54.76a163.17 163.17 0 0 1-56.4 34.73q-32.62 12.1-71.31 12.12t-71.32-12.12a163.17 163.17 0 0 1-56.4-34.73q-23.76-22.59-37-54.76T667.81 1148Zm75.51 0q0 23.31 7.23 42.66a97.53 97.53 0 0 0 20.74 33.56 94.59 94.59 0 0 0 32.39 22.13q18.89 7.93 42.19 7.93t42.18-7.93a94.59 94.59 0 0 0 32.39-22.13 97.84 97.84 0 0 0 20.74-33.56q7.23-19.34 7.23-42.66a121.49 121.49 0 0 0-7.23-42.41 97.34 97.34 0 0 0-20.74-33.79 94.75 94.75 0 0 0-32.39-22.14q-18.88-7.92-42.18-7.92t-42.19 7.92a94.75 94.75 0 0 0-32.39 22.14 97 97 0 0 0-20.74 33.79 121.49 121.49 0 0 0-7.23 42.41ZM1073.32 983h98.81l140.3 229.32h.93V983h72.71v330H1291l-144-234.92h-1V1313h-72.71ZM1561.79 983h60.12l143.56 330h-82l-28.47-69.93h-128.17l-27.5 69.92h-80.17Zm28 96-40.08 102.54h80.63ZM1819.54 1047.31h-94.15V983h261v64.32h-94.16V1313h-72.71ZM2022.29 983H2095v330h-72.71ZM2143.47 1148q0-39.6 13.29-71.77a157.36 157.36 0 0 1 37-54.77 163.48 163.48 0 0 1 56.4-34.73q32.63-12.11 71.32-12.11t71.31 12.11a163.48 163.48 0 0 1 56.4 34.73q23.78 22.61 37.05 54.77t13.29 71.77q0 39.63-13.29 71.79t-37.05 54.76a163.17 163.17 0 0 1-56.4 34.73q-32.64 12.1-71.31 12.12t-71.32-12.12a163.17 163.17 0 0 1-56.4-34.73q-23.76-22.59-37-54.76t-13.29-71.79Zm75.51 0q0 23.31 7.23 42.66a97.53 97.53 0 0 0 20.79 33.54 94.59 94.59 0 0 0 32.39 22.13q18.88 7.93 42.19 7.93t42.18-7.93a94.59 94.59 0 0 0 32.39-22.13 97.84 97.84 0 0 0 20.74-33.56q7.23-19.34 7.23-42.66a121.49 121.49 0 0 0-7.23-42.41 97.34 97.34 0 0 0-20.74-33.79 94.75 94.75 0 0 0-32.39-22.14q-18.89-7.92-42.18-7.92t-42.19 7.92a94.75 94.75 0 0 0-32.39 22.14 97 97 0 0 0-20.74 33.79A121.49 121.49 0 0 0 2219 1148ZM2549 983h98.81l140.3 229.32h.93V983h72.71v330h-95.09l-144-234.92h-.93V1313H2549Z" class="color0373c2 svgShape"/><path fill="#5a4848" d="M3018.58 1460.41a27.42 27.42 0 0 1-27.37 27.37H206a27.37 27.37 0 0 1-27.36-27.37A27.4 27.4 0 0 1 206 1433.1h2785.21a27.36 27.36 0 0 1 27.37 27.31Z" class="color48515a svgShape"/><path fill="#ffcdcd" d="M2164.78 893.32c0-33.13-35.53-96.23-43.75-113.88a.64.64 0 0 0-1.17 0c-8.09 17.57-43.76 82.13-43.76 113.88 0 18.81 9.55 35.16 23.55 43.41a40.58 40.58 0 0 0 38.55 1.62c15.65-7.59 26.58-24.89 26.58-45.03Z" class="colorcdefff svgShape"/><path fill="#fff" d="M2118.35 870.33h4.79l16.68 39h-6.16l-3.91-9.64h-18.56l-3.85 9.64h-6.17Zm9.47 24.72-7.27-17.9h-.11l-7.38 17.9Z" class="colorffffff svgShape"/><path fill="#ffcdcd" d="M1642.88 367.92c0-33.14-35.54-96.24-43.76-113.88a.64.64 0 0 0-1.17 0c-8.09 17.56-43.76 82.12-43.76 113.88 0 18.8 9.56 35.15 23.56 43.4a40.56 40.56 0 0 0 38.54 1.62c15.65-7.59 26.59-24.89 26.59-45.02Z" class="colorcdefff svgShape"/><path fill="#fff" d="M1585.05 352.16h13.54a17.66 17.66 0 0 1 4.71.6 11.11 11.11 0 0 1 3.74 1.79 8.27 8.27 0 0 1 2.48 3 9.61 9.61 0 0 1 .91 4.32 8 8 0 0 1-1.87 5.48 11 11 0 0 1-4.85 3.11v.11a8.22 8.22 0 0 1 3.31.91 9.2 9.2 0 0 1 2.67 2.09 10.09 10.09 0 0 1 2.45 6.69 9.67 9.67 0 0 1-1.08 4.65 10.06 10.06 0 0 1-2.94 3.39 13.94 13.94 0 0 1-4.35 2.09 19 19 0 0 1-5.34.72h-13.38Zm5.29 16.18h7.21a12.59 12.59 0 0 0 2.8-.3 6.2 6.2 0 0 0 2.32-1 5.22 5.22 0 0 0 1.57-1.82 5.78 5.78 0 0 0 .57-2.69 5.51 5.51 0 0 0-6.16-5.73h-8.31Zm0 18.17h7.76a15.61 15.61 0 0 0 2.67-.25 7.74 7.74 0 0 0 2.72-1 6.64 6.64 0 0 0 2.15-2 5.74 5.74 0 0 0 .88-3.36 6.14 6.14 0 0 0-2.26-5.2 9.75 9.75 0 0 0-6.11-1.73h-7.81Z" class="colorffffff svgShape"/><path fill="#ffcdcd" d="M638.86 449.61c0-33.14-35.54-96.24-43.76-113.88a.64.64 0 0 0-1.17 0c-8.09 17.56-43.76 82.12-43.76 113.88 0 18.8 9.55 35.15 23.56 43.4a40.56 40.56 0 0 0 38.54 1.62c15.65-7.63 26.59-24.89 26.59-45.02Z" class="colorcdefff svgShape"/><path fill="#fff" d="M575.42 429.27h4.79l16.68 39h-6.16l-3.91-9.63h-18.56l-3.85 9.63h-6.17Zm9.47 24.73-7.27-17.89h-.11L570.14 454ZM602 429.27h13.5a17.26 17.26 0 0 1 4.71.61 10.92 10.92 0 0 1 3.74 1.79 8.32 8.32 0 0 1 2.48 3 9.69 9.69 0 0 1 .91 4.33 8 8 0 0 1-1.87 5.48 10.9 10.9 0 0 1-4.85 3.1v.12a8.21 8.21 0 0 1 3.31.9 9.23 9.23 0 0 1 2.67 2.1 10 10 0 0 1 1.79 3 10.12 10.12 0 0 1 .66 3.69 9.67 9.67 0 0 1-1.08 4.65 9.93 9.93 0 0 1-2.94 3.38 13.51 13.51 0 0 1-4.35 2.09 19 19 0 0 1-5.34.72H602Zm5.28 16.19h7.22a12.59 12.59 0 0 0 2.8-.3 6.53 6.53 0 0 0 2.32-1 5.22 5.22 0 0 0 1.57-1.82 5.8 5.8 0 0 0 .57-2.7 5.5 5.5 0 0 0-6.16-5.72h-8.32Zm0 18.17H615a16.8 16.8 0 0 0 2.67-.25 8.16 8.16 0 0 0 2.72-1 6.86 6.86 0 0 0 2.15-2 5.78 5.78 0 0 0 .88-3.36 6.13 6.13 0 0 0-2.26-5.2 9.75 9.75 0 0 0-6.11-1.74h-7.82Z" class="colorffffff svgShape"/><path fill="#ffcdcd" d="M2495.09 549.68c0-33.13-35.53-96.23-43.76-113.88a.64.64 0 0 0-1.16 0c-8.09 17.57-43.76 82.12-43.76 113.88 0 18.81 9.55 35.15 23.55 43.41a40.64 40.64 0 0 0 38.54 1.62c15.66-7.59 26.59-24.9 26.59-45.03Z" class="colorcdefff svgShape"/><path fill="#fff" d="M2451.61 572.85a20.92 20.92 0 0 1-8.2-1.57A19.22 19.22 0 0 1 2437 567a20 20 0 0 1-4.18-6.5 22.29 22.29 0 0 1 0-16.18 20 20 0 0 1 4.18-6.5 19.07 19.07 0 0 1 6.42-4.32 22.2 22.2 0 0 1 16.4 0 19.07 19.07 0 0 1 6.42 4.32 20 20 0 0 1 4.18 6.5 22.43 22.43 0 0 1 0 16.18 20 20 0 0 1-4.18 6.5 19.22 19.22 0 0 1-6.42 4.32 20.92 20.92 0 0 1-8.21 1.53Zm0-5a14.11 14.11 0 0 0 10.68-4.57 14.72 14.72 0 0 0 3-4.92 17.84 17.84 0 0 0 0-12.06 14.87 14.87 0 0 0-3-4.93 14.55 14.55 0 0 0-4.63-3.33 14.59 14.59 0 0 0-16.73 3.33 14.54 14.54 0 0 0-3 4.93 17.84 17.84 0 0 0 0 12.06 14.16 14.16 0 0 0 13.65 9.49ZM2004.73 375.39h-13v-13a4.52 4.52 0 0 0-4.52-4.52h-1.67a4.53 4.53 0 0 0-4.52 4.52v13h-13a4.52 4.52 0 0 0-4.52 4.52v1.67a4.52 4.52 0 0 0 4.52 4.52h13v13a4.52 4.52 0 0 0 4.52 4.52h1.67a4.52 4.52 0 0 0 4.52-4.52v-13h13a4.53 4.53 0 0 0 4.52-4.52v-1.67a4.52 4.52 0 0 0-4.52-4.52ZM1791.74 253.88h-21.5v-21.5a7.5 7.5 0 0 0-7.5-7.5H1760a7.5 7.5 0 0 0-7.5 7.5v21.5H1731a7.5 7.5 0 0 0-7.5 7.5v2.76a7.49 7.49 0 0 0 7.5 7.49h21.5v21.51a7.49 7.49 0 0 0 7.5 7.49h2.76a7.49 7.49 0 0 0 7.5-7.49v-21.51h21.5a7.49 7.49 0 0 0 7.49-7.49v-2.76a7.49 7.49 0 0 0-7.51-7.5ZM1915.24 799.4h-16.38V783a5.72 5.72 0 0 0-5.72-5.71H1891a5.71 5.71 0 0 0-5.71 5.71v16.4H1869a5.7 5.7 0 0 0-5.71 5.71v2.1a5.7 5.7 0 0 0 5.71 5.71h16.38v16.38a5.71 5.71 0 0 0 5.62 5.7h2.1a5.71 5.71 0 0 0 5.72-5.71v-16.37h16.38a5.71 5.71 0 0 0 5.71-5.71v-2.1a5.71 5.71 0 0 0-5.67-5.71ZM643.76 977.34h-15.42v-15.43a5.37 5.37 0 0 0-5.38-5.37h-2a5.37 5.37 0 0 0-5.38 5.37v15.43h-15.4a5.37 5.37 0 0 0-5.38 5.37v2a5.37 5.37 0 0 0 5.38 5.37h15.42v15.43a5.37 5.37 0 0 0 5.38 5.37h2a5.37 5.37 0 0 0 5.38-5.37v-15.44h15.42a5.37 5.37 0 0 0 5.38-5.37v-2a5.37 5.37 0 0 0-5.4-5.36Z" class="colorffffff svgShape"/><path fill="#c25959" d="M532.59 1412.84v7.69a12.08 12.08 0 0 0 .46 3.37 12.61 12.61 0 0 0 12.16 9.25h197.94a12.62 12.62 0 0 0 12.16-9.25 12.08 12.08 0 0 0 .46-3.37v-7.69a12.62 12.62 0 0 0-12.62-12.62H545.21a12.62 12.62 0 0 0-12.62 12.62ZM620.48 1331.7h62.79v-23.54h-62.79c-20.09 0-37.25-6.71-49.63-19.39a62.44 62.44 0 0 1-17.49-43.32c0-19.11 8.54-36.84 24-50 19.06-16.1 47.79-24.61 83.1-24.61h52.57v-23.54h-52.52c-40.94 0-74.93 10.43-98.29 30.16-20.9 17.66-32.41 41.79-32.41 67.94 0 41.86 31.78 86.3 90.67 86.3Z" class="color5997c2 svgShape"/><path fill="#5a4848" d="M616.17 1307.93h107.32v23.99H616.17z" class="color48515a svgShape"/><path d="M533.05 1423.9a12.61 12.61 0 0 0 12.16 9.25h197.94a12.62 12.62 0 0 0 12.16-9.25Z" style="mix-blend-mode:multiply" fill="#faa" class="coloraae2ff svgShape"/><path fill="#e9b6b6" d="M607.14 1309.26v91H707.6s-77.88-95.6-80.12-97.87a13.06 13.06 0 0 0-6.35-3.59c-6.79-1.63-13.99 2.69-13.99 10.46Z" class="colore9c6b6 svgShape"/><path fill="#e9b6b6" d="M644.75 1280.98h67.69v7.65h-67.69z" class="colore9c6b6 svgShape" transform="rotate(180 678.595 1284.81)"/><path fill="#c25959" d="m582.92 1129.11 11.25-23.94-29.06-13.66a32.36 32.36 0 0 0-10.54 17.94 37.31 37.31 0 0 0-.71 6Z" class="color5997c2 svgShape"/><path fill="#fff" d="m566.55 1094.61 14.56 6.85a1.56 1.56 0 0 1-1.33 2.82l-14.56-6.85a1.56 1.56 0 0 1 1.33-2.82Z" class="colorffffff svgShape" opacity=".42"/><path fill="#5a4848" d="m595.28 1143.76 18.06-38.41-29.79-14a79.4 79.4 0 0 0-15.93 29.26 84.64 84.64 0 0 0-2.14 9.15Z" class="color48515a svgShape"/><path fill="#c25959" d="m742.94 1212.05-28.27-8.42 20.52-43.63 24.52 16.41a57.63 57.63 0 0 1-16.77 35.64Z" class="color5997c2 svgShape"/><path fill="#e9b6b6" d="m594.35 1091.58 159 74.78q-1.46 24.08-17 41.49a72.032 72.032 0 0 1-4.74 4.85l-159-74.78c.21-2.27.49-4.48.88-6.67a72.17 72.17 0 0 1 20.86-39.67Z" class="colore9c6b6 svgShape"/><path fill="#fff" d="m658.43 1124.83 89.93 42.28a1.56 1.56 0 0 1-1.33 2.82l-89.93-42.29a1.55 1.55 0 1 1 1.33-2.81ZM629.78 1111.36l20.66 9.71a1.56 1.56 0 0 1-1.32 2.82l-20.66-9.72a1.55 1.55 0 1 1 1.32-2.81Z" class="colorffffff svgShape" opacity=".42"/><path fill="#5a4848" d="M591.55 1165.4a29.88 29.88 0 0 0 51.52 20.6 29.89 29.89 0 1 0-51.53-20.62Z" class="color48515a svgShape"/><path fill="#c25959" d="M666.14 1280.98h15.1v50.94h-15.1z" class="color5997c2 svgShape" transform="rotate(180 673.69 1306.455)"/><circle cx="621.45" cy="1319.93" r="7.65" fill="#5a4848" class="color48515a svgShape" transform="rotate(-13.33 621.256 1319.65)"/><path fill="#5a4848" d="M678 1291a4.32 4.32 0 1 0-4.32 4.31A4.32 4.32 0 0 0 678 1291Z" class="color48515a svgShape"/><circle cx="621.45" cy="1165.4" r="20.62" fill="#c25959" class="color5997c2 svgShape" transform="rotate(-45 621.453 1165.396)"/><rect width="228.2" height="314.5" x="388.83" y="543.77" fill="#b09292" class="colorb09292 svgShape" rx="12.05" transform="rotate(180 502.935 701.02)"/><rect width="228.2" height="314.5" x="393.76" y="543.77" fill="#bfadad" class="colorbfadad svgShape" rx="12.05" transform="rotate(180 507.86 701.02)"/><path fill="#fff" d="M366.96 601.69h281.8v198.65h-281.8z" class="colorffffff svgShape" transform="rotate(90 507.86 701.02)"/><path fill="#e9b6b6" d="m455.08 542.06 6.63 22.47a4.06 4.06 0 0 0 3.8 3.05h84.7a4.06 4.06 0 0 0 3.8-3.05l6.62-22.47c.84-2.86-1.08-5.79-3.8-5.79h-97.94c-2.72 0-4.65 2.93-3.81 5.79Z" class="colore9c6b6 svgShape"/><path fill="#e59999" d="M445.73 579h120.52a1.85 1.85 0 0 0 0-3.68H445.73a1.85 1.85 0 0 0 0 3.68ZM472.85 593.51h68.56a1.86 1.86 0 0 0 0-3.69h-68.56a1.85 1.85 0 0 0 0 3.69Z" class="color99cbe5 svgShape"/><path fill="#ffcdcd" d="M429.14 685.18h14.93v16.51h-14.93z" class="colorcdefff svgShape" transform="rotate(180 436.605 693.44)"/><path fill="#ffcdcd" d="M429.14 737.97h14.93v16.51h-14.93z" class="colorcdefff svgShape" transform="rotate(180 436.605 746.23)"/><path fill="#ffcdcd" d="M429.14 790.77h14.93v16.51h-14.93z" class="colorcdefff svgShape" transform="rotate(180 436.605 799.025)"/><path fill="#e23434" d="M435.78 705.79a1.52 1.52 0 0 0 1.28-.75l9.2-15.27-2.55-1.89-7.53 12.49-7.65-23.07-2.88 1.17 8.69 26.21a1.57 1.57 0 0 0 1.26 1.1ZM437.39 758.07a1.5 1.5 0 0 0 1.28-.76l9.2-15.27-2.55-1.88-7.53 12.49-7.65-23.07-2.88 1.16L436 757a1.57 1.57 0 0 0 1.26 1.1ZM437.39 809.55a1.5 1.5 0 0 0 1.28-.76l9.2-15.27-2.55-1.88-7.53 12.49-7.65-23.07-2.88 1.17 8.74 26.21a1.59 1.59 0 0 0 1.26 1.1Z" class="colore23457 svgShape"/><path fill="#e59999" d="M580.14 701h-110.7a7.66 7.66 0 0 1-7.66-7.66 7.66 7.66 0 0 1 7.66-7.65h110.7a7.65 7.65 0 0 1 7.65 7.65 7.65 7.65 0 0 1-7.65 7.66ZM580.14 753.89h-110.7a7.66 7.66 0 0 1-7.66-7.66 7.65 7.65 0 0 1 7.66-7.65h110.7a7.64 7.64 0 0 1 7.65 7.65 7.65 7.65 0 0 1-7.65 7.66ZM580.14 806.75h-110.7a7.65 7.65 0 0 1-7.66-7.65 7.66 7.66 0 0 1 7.66-7.66h110.7a7.65 7.65 0 0 1 7.65 7.66 7.64 7.64 0 0 1-7.65 7.65Z" class="color99cbe5 svgShape"/><path fill="#e23434" d="M485.89 609.41c9 0 17.1 7.43 17.1 16.43v-.15c0-9 8-16.28 17-16.28a16.31 16.31 0 0 1 16.31 16.31c0 4.93-2.13 8.35-6.66 13.35-9.18 10.12-26.64 26.09-26.64 26.09s-17.58-16-26.74-26.09c-4.54-5-6.66-8.42-6.66-13.35a16.31 16.31 0 0 1 16.29-16.31Z" class="colore23457 svgShape"/><path fill="#e9b6b6" d="m514.89 669.7 7-23.24h20.26l1.78-10.36 1.75 10.36h8.87l4.45 16.66 2-30.23 1.56 14.22h12.84a.91.91 0 0 0 0-1.81h-11.17l-2.5-22.7h-1.8l-2 29.49-2-7.44h-8.73l-3.2-19.3-3.31 19.31h-20.13l-4.81 16-5.06-47.91-5 32.6h-6.48l-3-13.29-2.74 13.29h-24.95l-4.77-32.74L459.6 651l-1.6-5.7h-9.28l-3.38-14.4-2.77 14.4h-11.25a.91.91 0 0 0 0 1.81h12.78l1.45-7.56 1.77 7.56h9.33l3.73 13.53L464 626.9l3 20.21h28l1.36-6.57 1.49 6.57h9.47l3.12-20.35Z" class="colore9c6b6 svgShape"/><path fill="#5a4848" d="M495.91 567.58h4.81v-36.23c0-2.78.59-3.45.66-3.51s.87-.17 1.41-.16H518.64c.55 0 1.23 0 1.41.16s.66.73.66 3.51v36.23h4.82v-36.23c0-3.33-.67-5.53-2.1-6.94a6.34 6.34 0 0 0-4.87-1.54H502.87a6.26 6.26 0 0 0-4.87 1.54c-1.43 1.41-2.09 3.61-2.09 6.94Z" class="color48515a svgShape"/><path fill="#f78989" d="M2728.71 860.44s12.89 60.72 14.59 64-15.7 19.69-18.88 10.08-14-35.55-14-35.55Z" class="colorf7a489 svgShape"/><path fill="#e57e7e" d="M2578.46 467.2c-9.28-11.68-10.94-13.63-12.56-21.43s2.46-19.78 2.46-19.78l17.7-3.9 9.19 50.43-14.86 3.07Z" class="colore5957e svgShape"/><path fill="#f78989" d="M2637.6 835.89s-11.25 61.11-10.95 64.88-21.71 10.64-21 .44.72-38.76.72-38.76Z" class="colorf7a489 svgShape"/><path fill="#5a4848" d="M2627 899c2.87-1.86 5.55 26.28 5 28.67s-26.25 6-29.14 7.19-18.1 8.31-30.12 4.32-1.12-11.71-1.12-11.71 21.24-10.68 24.71-15.55 7.05-12.54 9-12 5.41 5.56 10.54 5.35 9.07-5 11.13-6.27ZM2742.36 919.83c1.85-2.9 15.71 21.56 16.21 24s-21.45 16.61-23.6 18.92-13.1 15.23-25.65 16.71-5.77-10.18-5.77-10.18 15-18.73 16.17-24.63 1.33-14.41 3.35-14.72 7.18 2.77 11.75.4 6.23-8.43 7.54-10.5Z" class="color48515a svgShape"/><path fill="#e57e7e" d="M2663.87 460.59c-7.52 6.48-52.69 47.37-64.94 58.08-11 9.58 4.79 39.74 18.73 30.88 17.08-10.86 41.34-26.42 59.63-44.07 11.48-11.07-1.36-55.28-13.42-44.89Z" class="colore5957e svgShape"/><path fill="#e57e7e" d="M2619.79 548.2c-8.74 6.5-26.45 10.46-30.46 3.43-5.36-9.37-8.22-68.27-10.28-81.86-.55-3.67 13-6.91 15.53-4 2.28 2.73 31.42 77.81 25.21 82.43Z" class="colore5957e svgShape"/><path fill="#cf4646" d="M2681.51 601.63c-22.36 28.13-78.93 94.4-81.2 113.78s1.42 161 1.7 166.6 36.21 3.21 37.34-1.17S2645.57 751 2649 742s88.81-97.82 88.81-97.82Z" class="color469fcf svgShape"/><path fill="#cf4646" d="M2710.67 624.54c-2.87 14-4 22.1-24.65 61.49s-25.17 56.88-26.87 68.14 46.65 157.44 49.15 160.9c4.17 5.78 37.55-5.39 36.7-17.12-.37-5-30.37-130.47-29.28-135 4-16.88 49.08-95.18 55.72-110.18s-2.68-63.3-2.68-63.3Z" class="color469fcf svgShape"/><path fill="#e34f4f" d="M2665 454c-8.23 8-40.59 34.75-40.59 34.75s15.27 54.36 17.86 51.88c3.43-3.3 32.83-22.7 32.83-22.7Z" class="color4fafe3 svgShape"/><path fill="#e55f5f" d="M2668.69 610.5c5.1 14.73 111.85 31.19 108.41 3.14-2.59-21.16-6.62-67.69-5.64-81.84.23-3.23 1-8.62 2-15.19.23-1.7.48-3.52.74-5.36 3.12-22.09 9.08-48.73.51-60.43-2.79-3.83-47.8-17.87-47.8-17.87l-24 4.56c-9 .17-37.91 14.93-38.22 16.86-1.21 8 2.71 52.49 7.27 75.18s-4.68 76.85-3.27 80.95Z" class="color5fb6e5 svgShape"/><path fill="#f78989" d="m2698.34 410.21.84 25.34.26 7.49c5 4.5 33.14-3.83 31.19-7.72s-2.62-18.14-1.58-30.45l-29.84 5.19Z" class="colorf7a489 svgShape"/><path d="m2698.34 410.21.84 25.34c8.8-2.14 15.67-8.1 20.94-17.16l-20.91-8.33Z" style="mix-blend-mode:multiply" fill="#f8d7d7" class="colorf8dfd7 svgShape"/><path fill="#f78989" d="M2706.8 571.41c12.52-8.53 36.61-25.77 52.84-41.62 5.47-5.34 10.06-10.53 13-15.17 8.59-13.52 18.37-50.67 4.06-57.45-7.87-3.72-28.22 15.76-48.85 39.4-15.95 18.24-29.54 34.83-35.95 39.47-11.74 8.53 1.27 44.68 14.9 35.37ZM2687.59 369.43c-5.56 17-4.1 43.31 3 52.6s32.39-2.31 36.69-10.39 19.63-46.31.59-51.84-34.36-8.5-40.28 9.63Z" class="colorf7a489 svgShape"/><path fill="#5a4848" d="M2729.05 404.87c-3.36-4.11-6.94-3.78-6.08-13.23s-.47-13.45-7.28-13.21c-8.51.3-17-9-27.63-10.34-8.67-1.11-13.88-20.18 10.72-25.18 14.93-3 40 6.34 46.23 20.12 4.56 10-.79 25-3.25 31.53s-12.71 10.31-12.71 10.31Z" class="color48515a svgShape"/><path fill="#f78989" d="M2729.79 394.77c4.18-5.61 8.81-4.77 9.65-3s1.47 5.79-2 12-7.77 9.67-8.95 8.78-2-5.18-1.36-8.17 1.63-8.23 2.66-9.61Z" class="colorf7a489 svgShape"/><path fill="#e23434" d="M2595.3 474.88a32.59 32.59 0 0 0 14.89 1.76 33 33 0 0 0 16.47-6.73c10.69-8.21 17-22.78 15.28-38.51-2.9-26.56-38-77.21-46.2-91.15a.52.52 0 0 0-.95.11c-5.11 15.53-28.39 71.64-25.35 99.35 1.84 16.84 12.36 30.29 25.86 35.17Z" class="colore23457 svgShape"/><path fill="#cf4646" d="M2671.07 521.65h.19a1.08 1.08 0 0 0 .85-1.26c0-.16-3-16.19-3.73-22.1a1.06 1.06 0 0 0-1.18-.93 1.08 1.08 0 0 0-.91 1.22c.77 6 3.71 22 3.74 22.2a1.08 1.08 0 0 0 1.04.87Z" class="color469fcf svgShape"/><path fill="#f78989" d="M2629 484.26c1.32-4.93-6-23.22-8.29-28.19s-3.39 1.32-2.9 4.71 1.95 9.84-2.12 5.39-12.48-13.41-14.85-15.8-1.64 4.94.26 7.88-6.07 17.33.48 28.5 13.19 11.38 13.19 11.38 18.52 6.88 16.58.32-3.41-10.31-2.35-14.19Z" class="colorf7a489 svgShape"/><path fill="#f78989" d="M2724.86 558.58c-10.33 9.21-19.14 16.6-31.5 17.31-22.72 1.3-72.44-72.6-78.16-77.6-2.75-2.41 11.68-15.8 13.49-12.36 2.74 5.23 45.78 35.33 62.06 47.95 3.16 2.45 39.9 19.54 34.11 24.7Z" class="colorf7a489 svgShape"/><path fill="#e55f5f" d="M2717.36 502.93c14.74 20.67 34.37 43.42 36.81 40.72 6-6.69 20.26-27.87 28.17-45 8.41-18.24 1.23-45.86-12.52-50.63-7.82-3.77-31.82 31.28-52.46 54.91Z" class="color5fb6e5 svgShape"/><path fill="#cf4646" d="M2748.7 541.74a1.07 1.07 0 0 0 .76-.32 1.1 1.1 0 0 0 0-1.53c-10.83-10.83-28-31-30.84-36.78 2.35-2.83 13.59-16.39 17.88-21.73a1.1 1.1 0 0 0-.15-1.53 1 1 0 0 0-1.48.16c-4.77 5.93-18.16 22.06-18.29 22.22l-.41.5.23.6c2.18 5.65 21.23 27.75 31.58 38.1a1 1 0 0 0 .72.31Z" class="color469fcf svgShape"/><path fill="#c22727" d="M2671.89 718.2a1 1 0 0 0 1-.61l4.14-8.83c6.86-14.63 16.24-34.67 25.87-54.79a1.09 1.09 0 0 0-.49-1.45 1 1 0 0 0-1.41.5c-9.63 20.12-19 40.17-25.87 54.81l-4.14 8.83a1.09 1.09 0 0 0 .5 1.44 1 1 0 0 0 .4.1Z" class="color278bc2 svgShape"/><path fill="#cf4646" d="M1826.4 1203.34c-22.74-4.93-71.92 0-71.92 0l27.46-106.19 55.2 10.33Z" class="color469fcf svgShape"/><path fill="#e9b6b6" d="M1825.3 815.38c7.11 14.61 8.35 31.08 23 45.71 17.65 17.67 10.12 34.35 20.55 48.46 11.25 15.19 31.16 38.68 12.26 59.71-32.93 36.65-50.92 1.15-50.92 1.15s-33.77-99.38-34.28-101.06 29.39-53.97 29.39-53.97Z" class="colore9c6b6 svgShape"/><path fill="#cc7070" d="M1787.7 872.7c.1 11.44-1.61 32.43-1.61 32.43s27.37-.47 27.07-4-1.58-32.7.18-38.72-25.64 10.29-25.64 10.29Z" class="colorcc8570 svgShape"/><path d="M1805.51 878.81c-6.88 13.33-18.37 14.11-18.37 14.11l.5-13.35Z" style="mix-blend-mode:multiply" fill="#e69a9a" class="colore6ab9a svgShape"/><path fill="#cc7070" d="M1768.41 841.39c.84 19.11 8.94 41.08 15.24 44.19s22.37-4.73 26.75-11.88 9-20.47 7.3-32.93-51.24-43.53-49.29.62ZM1716.58 1414.62s25.24 27.35 27.25-1.51c.28-4 .67-15.21 1-18.94.14-1.47 4.34-15.75 9.47-34 7.87-27.86-22.11-53.6-23-8.7-.45 21.74-4 46-4.7 47.89-2.19 5.64-10.02 15.26-10.02 15.26Z" class="colorcc8570 svgShape"/><path fill="#e9b6b6" d="M1812.43 864.52c-.29-7.54 1-15.57-6.55-21.35s-17.3-13.16-18-20.57c0 0-18 2.9-19.46 17.87 0 0-6.33-11.33-4.31-22.18s22.68-21.17 41.66-16.76 32.19 27 22 49.5-15.34 13.49-15.34 13.49Z" class="colore9c6b6 svgShape"/><path fill="#cc7070" d="M1814.8 855.71c2-7 9.88-5.63 10.26 1.58s-7.76 13.17-11.16 12.9-1.47-6.27.9-14.48ZM1867.86 1406.55s33.88 15.39 24.52-12c-1.31-3.83-5.29-14.28-6.44-17.85-.45-1.41-2.13-16.2-4.46-35-3.59-28.73-41.21-40.8-24.63 1 8 20.2 14.22 44 14.29 45.94.2 6.02-3.28 17.91-3.28 17.91Z" class="colorcc8570 svgShape"/><path fill="#bfadad" d="M1890.77 1388.42s8.7 21.8 8 25.24-15.11 9.74-20.46 14.61-11.94 11-26.27 12.87c0 0-3.53-4.23-.66-7.72s17-30.76 17-30.76 10.11 4.22 14.95 1 7.44-15.24 7.44-15.24Z" class="colorbfadad svgShape"/><path fill="#e9b6b6" d="M1731.25 1351.52s10.4 11.58 23 8.71c7.87-27.86 18-64.93 19.11-79.22 1.89-23.62.24-59.5 2.62-64.73s45.71-121.51 45.71-121.51l-9.84-45.25-48.23 2s-26.24 144.51-27.52 156.28c-2.99 28.07-3.91 98.82-4.85 143.72Z" class="colore9c6b6 svgShape"/><path fill="#e9b6b6" d="M1797 1051.5s7.67 174 12 184.17c3.17 7.37 35.33 82.38 53.46 125.57 0 0 19 2.49 20.75-3.26-1.44-16.19-2.92-33.72-3.46-43.37-1.16-20.63-24.39-81-25.54-88.46s1.5-73.08 5-100.05c4.41-34.52 1.43-52.4-12.64-81.19Z" class="colore9c6b6 svgShape"/><path fill="#f7abab" d="M1756.78 1059.82c5.51 10.15 20 14 38.86 13.23s42.15-.9 49.45-11.19 1.39-59.68.06-76.73 18.35-68.39 6.23-72.07l-37-13.39s-22.62 6.48-28 1.34c-.79-.75-12.15 2.33-12.47 2.9-11.08 19.65-24.28 45.53-21 57.85 3.43 12.68-1.65 87.91 3.87 98.06Z" class="colorf7abbe svgShape"/><path fill="#bfadad" d="M1744.73 1406.82s-.45 23.46-2.41 26.37-18.92-.21-25.74 2.2-15.38 3.86-29.31 0c0 0-2-7 2-9.05s33.12-19.52 33.12-19.52 3.91 12.24 9.61 11.21 12.73-11.21 12.73-11.21Z" class="colorbfadad svgShape"/><path fill="#cf4646" d="M1845.09 967.66s17.14 37.42 24.77 49.67c4.31 6.93 32.52 40.24 36 28.26 1.1-3.73 1.56-27.82-14.18-61.73-11.49-24.81-30.92-68.51-33.3-72.57Z" class="color469fcf svgShape"/><path fill="#cf4646" d="M1817 900.62c1.14 35.24 4.5 307.32 4.72 310.88s61.47-3.72 60-8.16c-.5-1.5-24.15-144.16-24.88-155-1.77-26.34 1.55-131 1.55-137 .03-4.13-41.39-12.86-41.39-10.72ZM1750.72 896.59c-39.09-8.42-94.31-27.49-99.74-30.29s-14.54 23.9-7.12 30.29 106.86 47.54 106.86 47.54Z" class="color469fcf svgShape"/><path fill="#cf4646" d="M1781.94 901.38c-.84 11.61-13.11 302.74-13 309.64 0 2.48-49.88.56-49.4-1.61 7.68-34.77 22-166.46 23.76-206.8 2-44.88 3-96.81 7.44-106-.02-.02 31.26 3.68 31.2 4.77Z" class="color469fcf svgShape"/><path fill="#626262" d="m1764 1048.11 70.22-1.3a5.83 5.83 0 0 0 5.68-6.58l-12.74-98.13a5.84 5.84 0 0 0-5.89-5.09l-70.22 1.3a5.83 5.83 0 0 0-5.68 6.58l12.74 98.13a5.84 5.84 0 0 0 5.89 5.09Z" class="color0373c2 svgShape"/><path fill="#bd3333" d="M1856 1048.31h1.65c-.66-22.65 1-66 1.56-78.77l-1.66-.07c-.49 12.72-2.17 56.13-1.55 78.84Z" class="color338abd svgShape"/><path fill="#cc7070" d="M1824.47 990.69c-.07-5.1-12.52-20.57-16.19-24.7s-3 2.23-1.57 5.35 4.71 8.89-.59 5.77-16.2-9.33-19.23-11-.24 5.21 2.48 7.49-1.18 18.36 8.5 27.22 16.33 7.18 16.33 7.18 12.32 8.26 15.33 8.24c5.74 0 9.36-10 6.89-13.78-3.84-5.78-11.9-7.74-11.95-11.77Z" class="colorcc8570 svgShape"/><path fill="#cf4646" d="M1816 1011.55c3.48 2.72 56.68 42.46 74.43 49.13.43.15.86.29 1.23.44l1.29.37c.28.06.53.11.74.17a6.37 6.37 0 0 0 .68.11 4.65 4.65 0 0 0 .61.08c6.79.42 10.76-9.22 10.84-18.6.12-15.27-4.36-17.36-17.87-24.36s-52.51-25.89-58.32-28.07c-1.49-.58-14.63 19.98-13.63 20.73Z" class="color469fcf svgShape"/><path fill="#cc7070" d="M1586.64 765.26c-2.65-4.76-7.26-12.47-9.18-13.5s-4.09-1.11-4.16 0 6.68 9.24 6.42 11.17-6-10.33-7.33-11.17-4.28 3.39-5.45 5.16-2.11 9.51-1.92 10.82c.22 1.59-2.45 4 0 10.69s21.62-13.17 21.62-13.17Z" class="colorcc8570 svgShape"/><path fill="#cc7070" d="M1572.9 769.15c-2.81 2.22-8.17 8.18-7.87 9.28 1.53 5.65 7 17 9.54 19.16 3 2.65 8.66 10 10.25 14.59s16.91 0 14.07-7.89c-1.38-3.87-3.17-7.77-4.35-15.25-.93-5.83-4.5-18.1-7.9-23.78-1-1.64-3.69-.71-4.59-.65-5.05.29-4.83 1.11-9.15 4.54Z" class="colorcc8570 svgShape"/><path fill="#e59999" d="M1569.39 746.71v50.72a8.47 8.47 0 0 0 2.34 6.2 3.78 3.78 0 0 0 2.54 1.06c2.69 0 4.87-3.25 4.87-7.26v-50.72a13.1 13.1 0 0 0-8.53-.41c-.4.12-.81.25-1.22.41Z" class="color99cbe5 svgShape"/><path fill="#e23434" d="M1574.27 756.24c2.13 0 3.87.29 3.87.64v39.42c0 3.75-1.74 6.79-3.87 6.79-2.14 0-3.87-3-3.87-6.79v-39.42c0-.35 1.73-.64 3.87-.64Z" class="colore23457 svgShape"/><path fill="#e9b6b6" d="M1568.08 742.38V747a.77.77 0 0 0 .65.85h11.07a.78.78 0 0 0 .66-.85v-4.66a.78.78 0 0 0-.66-.85h-11.07a.77.77 0 0 0-.65.89Z" class="colore9c6b6 svgShape"/><path fill="#9f5555" d="M1578.21 747.06a.18.18 0 0 0 .18-.18v-4.34a.18.18 0 0 0-.18-.18.18.18 0 0 0-.17.18v4.34a.18.18 0 0 0 .17.18ZM1575.58 747.06a.18.18 0 0 0 .18-.18v-4.34a.18.18 0 0 0-.18-.18.18.18 0 0 0-.17.18v4.34a.18.18 0 0 0 .17.18ZM1573 747.06a.18.18 0 0 0 .18-.18v-4.34a.18.18 0 0 0-.18-.18.17.17 0 0 0-.17.18v4.34a.17.17 0 0 0 .17.18ZM1570.32 747.06a.17.17 0 0 0 .17-.18v-4.34a.17.17 0 0 0-.17-.18.18.18 0 0 0-.18.18v4.34a.18.18 0 0 0 .18.18Z" class="color9f5a55 svgShape"/><path fill="#cc7070" d="M1592 778.21c-1.39-5.88-4.45-10-7.73-13.91s-5.79-1.16-14.7-.95c-1 0-.88 3.57 2.76 4.25 4 .77 6.71.56 8.62 1.66s-2.75 11-1.91 13.06 6.6 5.2 9.26 2.8 3.7-6.91 3.7-6.91Z" class="colorcc8570 svgShape"/><path fill="#cf4646" d="M1649 899.67c-27.77-10.24-66-86.63-69-91.4s15.48-18.62 18.82-15.27 57.34 74.59 63.29 77.61-13.11 29.06-13.11 29.06Z" class="color469fcf svgShape"/><path fill="#bd3333" d="m1885.58 1018.59.73-1.48c-14.32-7.08-29-14-39.7-19-8.84-4.16-15.22-7.16-16.53-8l-.86 1.4c1.38.86 7.47 3.72 16.69 8.06 10.7 5.05 25.37 11.95 39.67 19.02Z" class="color338abd svgShape"/><path fill="#e0a6a6" d="M1801.61 1110.19h1.66v89.93h-1.66z" class="colore0b8a6 svgShape" transform="rotate(-3.35 1804.796 1156.563)"/></g></svg>